<svg width="83" height="58" viewBox="0 0 83 58" fill="none" xmlns="http://www.w3.org/2000/svg">
<g id="G20">
<g id="g830">
<g id="g832">
<g id="g834">
<g id="g840">
<g id="g842">
<path id="path860" d="M69.7829 25.3797C69.7658 25.4059 69.7983 25.4441 69.8152 25.4416C69.8851 25.4308 69.9456 25.4402 70.0124 25.4729C70.119 25.5247 70.3904 25.2966 70.0702 25.2464C70.0669 25.2459 70.0634 25.2456 70.0596 25.2456C69.9848 25.2456 69.8079 25.3412 69.7829 25.3797Z" fill="url(#paint0_radial_238_1189)"/>
</g>
</g>
</g>
</g>
<g id="g862">
<g id="g864">
<g id="g870">
<g id="g872">
<path id="path890" d="M69.9762 25.1606C70.0137 25.2432 70.4509 25.0608 70.5006 24.9909C70.5242 24.9579 70.4956 24.944 70.4416 24.944C70.288 24.944 69.9289 25.0562 69.9762 25.1606Z" fill="url(#paint1_radial_238_1189)"/>
</g>
</g>
</g>
</g>
<g id="g892">
<g id="g894">
<g id="g900">
<g id="g902">
<path id="path920" d="M69.6372 25.201C69.6168 25.2256 69.6022 25.2366 69.5682 25.236C69.4228 25.2327 69.3389 25.292 69.3091 25.3514C69.2659 25.4377 69.3375 25.5241 69.5029 25.4171C69.5756 25.3701 69.6475 25.3247 69.7318 25.2966C69.8529 25.2563 69.914 25.1309 69.8491 25.1215C69.8256 25.1181 69.8053 25.1163 69.7876 25.1163C69.711 25.1163 69.6814 25.1476 69.6372 25.201Z" fill="url(#paint2_radial_238_1189)"/>
</g>
</g>
</g>
</g>
<g id="g922">
<g id="g924">
<g id="g930">
<g id="g932">
<path id="path950" d="M70.3468 23.3458C70.312 23.3712 70.2994 23.435 70.2638 23.4489C70.2391 23.4586 70.2072 23.4328 70.1729 23.407C70.1337 23.3773 70.0915 23.3476 70.0537 23.3716C69.8422 23.5059 69.9321 23.4936 69.8285 23.8069C69.673 24.2785 69.9352 24.0137 69.9211 24.2388C69.917 24.3045 69.8896 24.3627 69.8868 24.4735C69.8834 24.6049 70.1381 24.5563 70.1743 24.3561C70.2206 24.0981 70.2153 24.032 70.2682 24.0301C70.3687 24.0259 70.2788 24.1866 70.4237 24.2042C70.5156 24.2154 70.4412 24.3178 70.5809 24.2944C70.6908 24.276 70.8115 24.1392 70.7191 24.0878C70.5983 24.0212 70.7687 23.9853 70.6191 23.8623C70.5998 23.8465 70.5868 23.8134 70.5859 23.7876C70.5804 23.6069 70.4076 23.5816 70.5035 23.4899C70.524 23.47 70.5438 23.4449 70.5691 23.4348C70.6423 23.4061 70.7043 23.2266 70.5922 23.2266C70.545 23.2266 70.4673 23.2582 70.3468 23.3458Z" fill="url(#paint3_radial_238_1189)"/>
</g>
</g>
</g>
</g>
<g id="g952">
<g id="g954">
<g id="g960">
<g id="g962">
<path id="path980" d="M69.7052 18.6894C69.3555 18.7127 69.693 19.291 69.557 19.361C69.5082 19.386 69.4972 19.423 69.5223 19.4753C69.5556 19.5451 69.5578 19.7122 69.6746 19.7486C69.7347 19.767 69.7604 19.7923 69.756 19.8534C69.7526 19.899 69.807 19.9178 69.816 19.9506C69.8268 19.9921 69.7678 20.0732 69.8022 20.0924C69.8428 20.115 69.8422 20.1597 69.8632 20.1919C70.0133 20.4213 70.1486 20.1292 70.0638 20.0113C70.0504 19.9928 70.0256 19.9782 70.0212 19.9586C70.0094 19.9063 70.0316 19.8472 70.0903 19.8643C70.1502 19.8822 70.1858 19.8706 70.2147 19.8589C70.2568 19.8421 70.2847 19.8252 70.3539 19.899C70.4236 19.9734 70.5586 19.9054 70.5327 19.8426C70.5202 19.8118 70.4494 19.6428 70.4158 19.6419C70.311 19.6392 70.1996 19.5936 70.108 19.6837C70.0728 19.7184 70.064 19.692 70.0515 19.6633C69.8472 19.2029 70.0895 19.3267 70.0531 19.1118C70.0604 18.9872 70.0666 18.9821 70.0332 18.9417C69.9346 18.8218 70.0489 18.6868 69.7775 18.6868C69.756 18.6868 69.732 18.6877 69.7052 18.6894Z" fill="url(#paint4_radial_238_1189)"/>
</g>
</g>
</g>
</g>
<g id="g982">
<g id="g984">
<g id="g990">
<g id="g992">
<path id="path1010" d="M53.7412 20.9513C53.8608 21.252 54.2976 20.96 53.8 20.8705C53.797 20.87 53.7941 20.8697 53.7915 20.8697C53.7555 20.8697 53.751 20.9164 53.7412 20.9513Z" fill="url(#paint5_radial_238_1189)"/>
</g>
</g>
</g>
</g>
<g id="g1012">
<g id="g1014">
<g id="g1020">
<g id="g1022">
<path id="path1040" d="M58.8997 32.0449C59.0655 32.0449 58.9819 31.8899 58.8997 31.8812C58.8817 31.8794 58.8652 31.8785 58.8505 31.8785C58.6468 31.8785 58.7452 32.0449 58.8997 32.0449Z" fill="url(#paint6_radial_238_1189)"/>
</g>
</g>
</g>
</g>
<g id="g1042">
<g id="g1044">
<g id="g1050">
<g id="g1052">
<path id="path1070" d="M60.082 22.3973C60.0883 22.5713 60.0238 22.6637 59.996 22.8379C60.0854 23.2402 59.998 23.1277 60.1848 23.316C60.2538 23.3857 60.5642 23.361 60.6628 23.1696C60.8046 22.8945 60.2818 22.3385 60.125 22.3385C60.0968 22.3385 60.0804 22.3564 60.082 22.3973Z" fill="url(#paint7_radial_238_1189)"/>
</g>
</g>
</g>
</g>
<g id="g1072">
<g id="g1074">
<g id="g1080">
<g id="g1082">
<path id="path1100" d="M53.0045 26.3565C52.9998 26.3783 53.0082 26.4027 53.0032 26.4241C52.9756 26.5442 52.9252 26.4109 52.8659 26.6214C52.8541 26.6629 52.8364 26.6974 52.7919 26.7083C52.3229 26.8241 52.347 26.6901 52.3258 26.8678C52.295 27.1232 52.4052 27.1334 52.5272 27.3972C52.6856 27.7389 52.1785 27.365 52.8177 28.2666C52.8831 28.3585 53.1675 28.5826 53.4 28.5611C53.6699 28.5359 53.4383 27.9029 53.4913 27.6677C53.5639 27.345 53.41 27.1365 53.5439 27.0695C53.5979 27.0424 53.6067 27.0115 53.5703 26.9774C53.4157 26.8312 53.493 26.629 53.2264 26.3543C53.1893 26.316 53.1332 26.2867 53.0863 26.2867C53.0478 26.2867 53.0154 26.3063 53.0045 26.3565Z" fill="url(#paint8_radial_238_1189)"/>
</g>
</g>
</g>
</g>
<g id="g1102">
<g id="g1104">
<g id="g1110">
<g id="g1112">
<path id="path1130" d="M64.7324 24.3203C64.868 24.319 64.9106 24.2184 64.8803 24.1958C64.7829 24.1234 64.7127 24.0963 64.6671 24.0963C64.5547 24.0962 64.5903 24.2604 64.7324 24.3203Z" fill="url(#paint9_radial_238_1189)"/>
</g>
</g>
</g>
</g>
<g id="g1132">
<g id="g1134">
<g id="g1140">
<g id="g1142">
<path id="path1160" d="M67.2007 24.7194C67.2143 24.8857 67.6551 24.6377 67.3689 24.5411C67.2546 24.5599 67.1872 24.5562 67.2007 24.7194Z" fill="url(#paint10_radial_238_1189)"/>
</g>
</g>
</g>
</g>
<g id="g1162">
<g id="g1164">
<g id="g1170">
<g id="g1172">
<path id="path1190" d="M69.1077 17.495C69.1679 17.9137 69.4139 17.9386 69.4432 17.7836C69.4567 17.7139 69.5286 17.5278 69.4663 17.28C69.4486 17.2103 69.5593 17.1518 69.4272 17.0615C69.3876 17.0345 69.3542 17.0224 69.3257 17.0224C69.1969 17.0223 69.1666 17.2683 69.1077 17.495Z" fill="url(#paint11_radial_238_1189)"/>
</g>
</g>
</g>
</g>
<g id="g1192">
<g id="g1194">
<g id="g1200">
<g id="g1202">
<path id="path1220" d="M68.9459 22.3607C68.9385 22.4431 68.8605 22.4156 68.8015 22.4653C68.5331 22.6899 68.6321 22.6144 68.459 22.8853C68.2692 23.1823 68.0199 22.9993 67.9928 23.3152C67.9814 23.4472 67.9305 23.4403 67.7785 23.4403V23.4378C67.7161 23.4378 67.6299 23.4273 67.5843 23.4821C67.4037 23.6997 67.46 23.8645 67.5715 24.1175C67.6521 24.3001 67.7766 24.1682 67.7836 24.32C67.7915 24.4924 67.7176 24.6905 68.1137 24.5374C68.1308 24.531 68.174 24.5459 68.1736 24.5472C68.1634 24.6345 68.2847 24.5817 68.4295 24.5288C68.5807 24.4736 68.7578 24.4181 68.8365 24.5234C68.926 24.6435 68.9715 24.4577 69.2457 24.3858C69.421 24.3399 69.2968 24.1773 69.3782 23.9924C69.409 23.9223 69.3218 23.8835 69.4184 23.7662C69.6072 23.5364 69.589 23.6991 69.5983 23.3024C69.6021 23.1406 69.9072 23.1909 69.8412 23.0686C69.7692 22.9354 69.6503 22.9816 69.6483 22.864C69.6458 22.7433 69.4289 22.5739 69.6547 22.3849C69.7032 22.3443 69.7673 22.3162 69.7196 22.2353C69.715 22.2273 69.7284 22.2047 69.7384 22.1933C69.7995 22.1237 69.9006 22.0547 69.778 22.0146C69.5487 21.9392 69.5427 21.9814 69.4859 21.8986C69.445 21.8389 69.4008 21.8143 69.3561 21.8143C69.1605 21.8142 68.9529 22.2858 68.9459 22.3607Z" fill="url(#paint12_radial_238_1189)"/>
</g>
</g>
</g>
</g>
<g id="g1222">
<g id="g1224">
<g id="g1230">
<g id="g1232">
<path id="path1250" d="M47.667 22.2759C47.667 28.7998 53.0518 34.1074 59.6706 34.1074C66.2894 34.1074 71.6741 28.7998 71.6741 22.2759C71.6741 15.7521 66.2894 10.4446 59.6706 10.4446C53.0518 10.4446 47.667 15.7521 47.667 22.2759ZM51.6557 14.2851C51.7635 14.2505 51.8369 14.2433 51.8287 14.1633C51.8256 14.1325 51.8165 14.1056 51.7919 14.0889C51.8534 14.0312 51.9155 13.9743 51.9783 13.918C52.0409 13.9003 52.0661 13.963 52.1251 14.0028C52.2135 14.0623 52.0702 14.0735 52.0301 14.3055C52.0104 14.4187 51.8136 14.5605 51.5606 14.9134C51.3772 15.1692 51.1995 15.0596 51.1371 14.9425C51.1116 14.8943 51.0872 14.8604 51.0635 14.8356C51.2343 14.6439 51.4113 14.4578 51.5945 14.278C51.6107 14.2822 51.6285 14.2852 51.6488 14.2852C51.6511 14.2852 51.6534 14.2852 51.6557 14.2851ZM67.3724 18.92C67.3719 18.9086 67.3744 18.8952 67.369 18.8863C67.2337 18.6602 67.7078 18.6061 67.8896 18.3871C67.9596 18.3029 68.097 18.2997 68.1266 18.1771C68.1284 18.17 68.1455 18.1646 68.1567 18.162C68.6322 18.0511 68.8594 17.237 68.9301 17.1683C69.0006 17.0995 68.9198 17.0262 68.9395 16.9561C68.9595 16.8863 69.0207 16.5102 69.063 16.4308C69.1803 16.2103 69.0953 16.3279 69.1025 16.1445C69.1082 15.9887 69.0578 15.9744 69.1003 15.878C69.1007 15.8773 69.1007 15.8767 69.1009 15.876C69.9391 17.0722 70.5491 18.4347 70.8691 19.9024C70.7389 19.7915 70.4887 19.9246 70.6574 20.0828C70.7816 20.1991 70.5453 20.1783 70.7137 20.3741C70.8339 20.5139 70.6604 20.4692 70.599 20.5927C70.5949 20.6011 70.5734 20.6032 70.5599 20.6034C70.5378 20.6036 70.5745 20.4627 70.5754 20.4394C70.5781 20.3753 70.4902 20.3855 70.4757 20.333C70.4509 20.2434 70.3775 20.2585 70.2868 20.2732C70.2076 20.2858 70.1455 20.3052 70.1756 20.5132C70.1871 20.5934 70.2489 20.5871 70.2976 20.5807C70.3385 20.5756 70.37 20.5703 70.3551 20.6157C70.3037 20.7719 70.2639 20.7825 70.3632 20.852C70.567 20.9942 70.5442 20.7335 70.6517 20.7086C70.7683 20.6816 70.8057 20.6054 70.8983 20.3994C70.9489 20.2873 70.8128 20.3244 70.9301 20.202C70.9506 20.3102 70.9699 20.4188 70.9872 20.528C70.9597 20.5341 70.9395 20.5467 70.9416 20.5691C70.9589 20.7527 70.8418 20.7242 70.7905 20.8556C70.762 20.9289 70.7243 20.9233 70.6788 20.9179C70.6353 20.9127 70.5848 20.9075 70.5282 20.9708C70.5159 20.9844 70.3217 21.2038 70.3203 21.2221C70.3057 21.4096 70.2835 21.4881 70.3541 21.4776C70.4529 21.4628 70.4288 21.4246 70.4721 21.3291C70.5059 21.2547 70.7214 21.1219 70.7211 21.2246C70.7209 21.3823 70.6331 21.507 71.0051 21.5109C71.0399 21.5113 71.0704 21.5008 71.0961 21.4844C71.1145 21.746 71.1245 22.0098 71.1245 22.2759C71.1245 22.3458 71.1232 22.4153 71.122 22.4848C71.1135 22.4729 71.0982 22.469 71.0793 22.472C70.9553 22.4926 70.9258 22.6509 70.8332 22.7002C70.5131 22.8702 70.4261 22.7631 70.2517 22.8451C70.1565 22.8893 70.0968 23.0066 70.1643 23.0814C71.0378 22.8344 70.9423 22.8797 71.0973 22.5994C71.1087 22.5787 71.1161 22.5614 71.1211 22.546C71.1008 23.393 70.985 24.2172 70.7846 25.0086C70.7799 25.0127 70.7764 25.0161 70.7716 25.0204C70.7163 25.0698 70.6872 25.1409 70.7309 25.2124C70.564 25.8223 70.3468 26.4119 70.0833 26.9764C70.0535 27.0093 70.0266 27.0455 70.0005 27.0814C69.7754 27.3919 69.0717 27.5923 68.7605 27.853C68.6493 27.9462 68.5285 28.0231 68.3948 28.0809C68.2271 28.1535 68.3279 28.232 68.1684 28.451C68.109 28.5326 68.1046 28.6175 68.1495 28.7089C68.2374 28.8892 68.0245 28.8228 68.0806 28.9984C68.1684 29.2739 68.1755 29.2822 68.1582 29.34C68.0851 29.5843 68.3457 29.4892 67.9263 29.8901C67.8833 29.931 67.9571 29.9552 68.0507 29.9633C65.9582 32.178 62.9759 33.5658 59.6706 33.5658C54.2474 33.5658 49.6926 29.8315 48.5133 24.8347C49.1502 26.0234 50.1862 27.5048 51.1925 28.3718C51.608 28.7298 51.4505 28.2327 51.4592 28.1366C51.4685 28.0337 51.4308 27.9788 51.2996 27.7443C51.2539 27.6627 51.263 27.6631 51.316 27.6634C51.3358 27.6635 51.3619 27.6636 51.3935 27.6595C51.4461 27.6523 51.4835 27.604 51.4605 27.5615C51.3954 27.4415 51.3725 27.3037 51.2779 27.1944C51.2125 27.1186 50.9437 26.7602 51.0977 26.7353C51.2539 26.71 51.1897 26.5405 51.4563 26.5812C51.6071 26.6042 51.7295 26.3643 51.6363 26.1864C51.5703 26.0604 51.4883 25.6948 51.4396 25.4752C51.3828 25.2181 51.2379 25.275 51.1342 24.8883C51.0366 24.5252 51.1563 24.6624 51.0061 24.422C50.8699 24.2044 50.9952 24.0654 51.0894 23.7949C51.1031 23.7557 51.1171 23.7218 51.155 23.6985C51.5299 23.4672 51.3133 23.382 51.9859 23.0179C52.1055 23.0141 52.1881 22.9405 52.2724 22.8695C52.8417 22.3914 52.7675 22.2365 52.9457 21.9759C53.0823 21.7766 53.1452 21.7251 53.229 21.4938C53.2351 21.4774 53.326 21.2381 53.3189 21.2228C53.2621 21.1011 53.4046 20.9931 53.2869 20.9397C53.1625 20.8833 53.1299 20.9108 53.0941 20.9382C53.0715 20.9556 53.0475 20.9729 52.9981 20.9691C52.6849 20.9449 52.4398 20.8866 52.3851 20.9162C52.3628 20.9285 52.323 20.9321 52.3015 20.9207C52.2081 20.8711 52.128 20.8791 52.0602 20.8872C51.9799 20.8969 51.9168 20.9064 51.8698 20.82C51.7148 20.5356 51.6935 20.5139 51.7719 20.4654C51.7834 20.4583 51.7945 20.4347 51.7913 20.422C51.769 20.3371 51.8013 20.365 51.8724 20.3929C51.9389 20.4189 52.039 20.4448 52.16 20.3794C52.253 20.3289 52.2962 20.3478 52.345 20.3666C52.3856 20.3823 52.4302 20.3979 52.5108 20.3735C52.6415 20.3339 52.6907 20.341 52.734 20.3482C52.7588 20.3521 52.7817 20.3563 52.8166 20.3515C52.8908 20.3415 52.9472 20.2625 53.0305 20.254C53.8821 20.1696 53.5466 20.1367 53.6624 20.0324C53.7745 19.9316 53.9093 19.9439 54.0317 19.9563C54.1658 19.9698 54.2852 19.9833 54.345 19.8486C54.3729 19.7854 54.4262 19.7862 54.4806 19.7871C54.542 19.788 54.6051 19.7889 54.6351 19.6975C54.6644 19.6076 54.736 19.6102 54.8029 19.6128C54.8853 19.6161 54.9605 19.6192 54.9408 19.4495C54.9329 19.3805 55.1129 19.31 55.1582 19.2335C55.3426 18.9228 55.5974 18.8737 55.4342 18.701C55.2753 18.5328 55.3563 18.4434 55.0756 18.3037C54.8017 18.1676 54.8318 17.9169 54.9137 17.774C54.9558 17.7 54.8764 17.5691 54.7915 17.6616C54.6706 17.7934 54.5243 17.8926 54.3686 17.9792C54.2928 18.0213 54.2886 18.0078 54.2299 17.9942C54.1888 17.9847 54.1207 17.9751 53.9823 17.9849C53.7889 17.9984 53.8956 17.7467 53.9274 17.6095C53.9556 17.4879 53.8748 17.3778 53.7835 17.4479C53.7611 17.4652 53.7427 17.4883 53.7189 17.503C53.7115 17.5074 53.6819 17.494 53.6798 17.4851C53.6619 17.4057 53.7439 17.3452 53.6547 17.1361C53.2657 16.2249 53.7147 16.4452 53.8327 16.4587C53.9746 16.8276 53.8806 17.0719 54.0543 17.1112C54.1184 17.1256 54.1439 17.1815 54.1734 17.2297C54.395 17.5909 54.7385 17.6413 54.8674 17.5283C54.9032 17.4968 54.9654 17.5073 54.9949 17.5658C55.0625 17.699 54.7902 17.8588 55.5159 18.0637C55.8027 18.1447 55.8096 18.2187 56.1494 18.221C56.4554 18.2232 56.4491 18.2675 56.6312 18.2667C57.2052 18.2637 56.8872 18.3217 56.9995 18.3954C57.1264 18.4792 57.0947 18.6803 57.2675 18.7338C57.3324 18.7536 57.3987 18.9034 57.4895 18.9664C57.5867 19.0337 57.4377 19.0406 57.4744 19.1345C57.4975 19.194 57.7525 19.4883 57.7946 19.537C57.8495 19.6002 58.118 19.6136 58.2362 19.467C58.4215 19.2376 58.2186 20.1401 58.3928 20.3803C58.3928 20.3803 58.4044 20.7047 58.4855 20.8234C58.5241 20.8801 58.5125 20.949 58.5588 21.0057C58.7647 21.2586 58.7275 21.6767 58.94 21.8894C59.0552 22.0049 59.2086 22.7458 59.4524 22.8064C59.7168 22.8718 59.6642 22.6294 59.7837 22.584C59.9236 22.5308 59.9162 22.5065 59.9675 22.3618C60.0052 22.2561 60.1453 22.3509 60.1446 22.1527C60.1438 21.9817 60.0439 21.9454 60.1441 21.8287C60.2799 21.6702 60.2142 21.2013 60.1815 21.1156C60.1133 20.938 60.3304 20.9531 60.3938 20.8835C60.5148 20.7509 60.7186 20.8253 60.7364 20.6376C60.7495 20.4988 61.0612 20.4215 61.2537 20.1481C61.3422 20.0225 61.4605 19.9303 61.6018 19.8719C61.9691 19.7205 61.7247 19.5378 61.8975 19.444C62.0203 19.3773 62.2344 19.4506 62.4226 19.3492C62.5392 19.2865 62.7298 19.3594 62.7495 19.1619C62.7554 19.1045 62.8563 19.1129 62.875 19.1445C62.9738 19.3107 62.9564 19.5687 63.2992 19.7124C63.4868 19.7912 63.3362 19.8801 63.5049 20.0054C63.892 20.2929 63.4381 20.6221 63.7133 20.7383C63.9636 20.8441 64.0048 20.6947 64.2815 20.5118C64.4033 20.4314 64.5529 20.781 64.5301 20.9157C64.528 20.9278 64.4935 20.9355 64.5178 20.9519C64.6084 21.0128 64.6028 21.1392 64.6941 21.1984C64.7217 21.2749 64.7957 21.3415 64.7349 21.4367C64.7214 21.4578 64.7341 21.5077 64.7519 21.5324C64.8034 21.6043 64.8616 22.0586 64.7703 22.1408C64.7628 22.1474 64.7561 22.1661 64.7599 22.1713C64.8483 22.2926 64.7337 22.4529 64.8841 22.5181C65.0589 22.5942 65.3384 22.9622 65.3366 23.0145C65.3229 23.3778 65.6936 23.7627 65.6936 23.7627C65.4026 23.7627 65.4532 23.6093 65.0637 23.4885C64.9202 23.4439 64.8347 23.1959 64.6482 23.2123C64.6076 23.2158 64.5238 23.2091 64.4317 23.2023C64.2509 23.189 64.038 23.1758 64.0597 23.2408C64.0805 23.3045 64.0909 23.3812 64.1342 23.426C64.2125 23.5065 64.2973 23.5842 64.4166 23.6168C64.6785 23.6888 64.6857 23.9266 64.8092 23.9452C65.1295 23.9942 64.9281 24.3045 65.1813 24.3719C65.2683 24.3952 65.253 24.419 65.4327 24.6221C65.5646 24.7711 65.5143 24.9143 65.7957 25.0622C65.9855 25.1617 65.8288 25.1922 66.1781 25.3154C66.3873 25.3892 66.3964 25.5145 66.5682 25.4349C66.6389 25.4019 66.8136 25.3954 66.7651 25.511C66.7195 25.6201 66.7533 25.6629 66.7748 25.6588C66.8569 25.6433 66.8852 25.6667 66.9131 25.6902C66.9401 25.7131 66.9668 25.736 67.0419 25.7227C67.1158 25.71 67.1885 25.6809 67.2583 25.7373C67.267 25.7444 67.2909 25.739 67.3055 25.7332C67.5013 25.658 67.6856 25.6592 67.8721 25.6602C68.078 25.6615 68.2862 25.6628 68.5143 25.5609C68.5338 25.5521 68.5733 25.5553 68.6196 25.5584C68.7401 25.5667 68.9072 25.5749 68.8945 25.3721C68.8881 25.2717 68.8023 25.2978 68.719 25.3238C68.6677 25.34 68.6172 25.3561 68.587 25.3423C68.622 25.2727 68.796 25.269 68.7686 25.1681C68.759 25.1333 68.6222 25.1644 68.5894 25.1743C68.169 25.3017 68.036 25.1538 67.8813 25.3383C67.813 25.4198 67.5994 25.4096 67.5223 25.3647C67.498 25.3505 67.3564 25.3514 67.3191 25.3419C67.1736 25.3052 66.9155 25.3301 66.9155 25.3301C67.0106 25.183 66.8388 24.8707 67.0455 24.7595C67.1844 24.6851 67.0248 24.6047 66.9771 24.5237C66.882 24.3626 66.6946 24.4401 66.6389 24.5305C66.5897 24.6104 66.5987 24.459 66.5348 24.405C66.4387 24.3236 66.3333 24.3309 66.3333 24.3309C66.3933 24.0725 66.4366 24.1999 66.2048 23.9919C66.1204 23.9164 66.5428 23.9538 66.4263 23.7644C66.3576 23.6526 66.198 23.5739 66.2186 23.2794C66.2425 22.9362 65.7571 22.7636 65.6909 22.694C65.6457 22.6465 65.5961 22.6491 65.5515 22.6517C65.4903 22.6552 65.4383 22.6588 65.4195 22.5323C65.4088 22.4613 65.3837 22.3917 65.3329 22.3522C65.2077 22.255 65.3318 22.1589 65.1612 22.1341C64.8213 22.0851 65.2589 21.6326 65.1841 21.3278C65.1592 21.2255 65.2693 21.1005 65.3003 21.1643C65.4185 21.4079 65.1633 21.2399 65.7593 21.4013C65.9557 21.4545 65.8083 21.6299 65.9679 21.6376C66.0389 21.6409 66.0467 21.7207 66.1057 21.7318C66.4516 21.7984 66.3638 21.794 66.4091 22.0972C66.4163 22.146 66.48 22.1695 66.5175 22.1375C66.5476 22.112 66.5705 22.0784 66.596 22.0479C66.7695 21.8394 66.7438 21.983 66.8995 21.6807C66.988 21.509 67.774 21.3847 67.2802 20.4093C67.0544 19.9634 66.7336 20.025 66.5997 19.7795C66.4951 19.5885 66.4202 19.697 66.3738 19.5326C66.3144 19.3205 66.4867 19.1831 66.7234 18.8557C66.8244 18.7159 67.0641 18.7388 67.0783 18.7939C67.1021 18.8877 67.2154 19.018 67.1768 19.0478C66.8819 19.2757 66.9258 19.2543 66.9639 19.4787C66.9911 19.6411 67.2589 19.5424 67.3295 19.5216C67.3738 19.4429 67.4646 19.3904 67.4748 19.2943C67.4827 19.2187 67.5021 19.1486 67.5366 19.0824C67.5576 19.0426 67.5054 18.9604 67.4272 18.9686C67.4238 18.969 67.4206 18.9692 67.4176 18.9692C67.3877 18.9692 67.3737 18.9517 67.3724 18.92ZM51.0948 15.9794C51.126 15.9722 51.1577 15.965 51.187 16.0075C51.2558 16.108 51.2461 16.9719 51.3095 17.0773C51.4942 17.3831 51.3338 17.6749 51.356 18.0098C51.3667 18.1723 51.5303 18.2525 51.4978 18.3842C51.6123 18.5338 51.5205 18.6863 51.6388 18.9516C51.8423 19.4071 51.6136 19.4257 51.7139 19.923C51.7487 20.0954 51.691 20.2961 51.5001 19.7824C51.3945 19.4983 51.2523 19.4717 51.2583 19.3402C51.2585 19.3346 51.2583 19.3257 51.2548 19.3239C51.1128 19.2436 51.2014 19.107 51.1726 19.0191C51.2261 18.4842 50.9052 18.4642 51.0315 18.0059C51.0908 17.7911 51.1295 17.5728 51.0318 17.3559C50.8926 17.0465 51.0585 17.146 51 16.8255C50.9845 16.7413 51.0211 16.6591 51.0079 16.574C50.9921 16.4732 50.9625 15.9643 51.0464 15.9832C51.0509 15.9843 51.0554 15.9847 51.0599 15.9847C51.0714 15.9847 51.083 15.982 51.0948 15.9794Z" fill="url(#paint13_radial_238_1189)"/>
</g>
</g>
</g>
</g>
<g id="g1252">
<g id="g1254">
<g id="g1260">
<g id="g1262">
<path id="path1280" d="M63.4583 21.1813L63.4737 21.1793C63.4732 21.1792 63.4727 21.1792 63.4722 21.1792C63.4675 21.1792 63.4628 21.1799 63.4583 21.1813ZM63.4382 21.184C63.4419 21.1838 63.4458 21.1842 63.4495 21.185C63.4522 21.1835 63.4552 21.1822 63.4583 21.1813L63.4382 21.184ZM63.4346 21.2022C63.4293 21.2176 63.4433 21.2377 63.459 21.2339C63.4719 21.2306 63.4778 21.2132 63.4717 21.2014C63.4675 21.1928 63.459 21.1873 63.4495 21.185C63.4426 21.1889 63.4371 21.1947 63.4346 21.2022Z" fill="url(#paint14_radial_238_1189)"/>
</g>
</g>
</g>
</g>
<g id="g1282">
<g id="g1284">
<g id="g1290">
<g id="g1292">
<path id="path1310" d="M63.3383 21.3818C63.3169 21.4135 63.2942 21.4452 63.2925 21.4847C63.2917 21.5029 63.3317 21.5817 63.332 21.5812C63.2964 21.6615 63.2917 21.7545 63.3191 21.8379C63.3485 21.7927 63.3325 21.7185 63.3808 21.6937C63.3905 21.6888 63.4013 21.6868 63.4105 21.6812C63.4197 21.6756 63.4268 21.6641 63.4223 21.6544C63.4184 21.6462 63.4084 21.6433 63.4015 21.6374C63.3898 21.6273 63.3885 21.6101 63.3879 21.5947C63.3865 21.5436 63.385 21.4926 63.3833 21.4415C63.3826 21.4138 63.4299 21.3492 63.401 21.3281C63.3962 21.3246 63.3916 21.3231 63.3873 21.3231C63.3642 21.3231 63.3483 21.3667 63.3383 21.3818Z" fill="url(#paint15_radial_238_1189)"/>
</g>
</g>
</g>
</g>
<g id="g1312">
<g id="g1314">
<g id="g1320">
<g id="g1322">
<path id="path1340" d="M63.2813 21.9082C63.2828 21.9088 63.2843 21.9096 63.2857 21.9106L63.2778 21.9029C63.279 21.9046 63.2802 21.9065 63.2813 21.9082ZM63.2431 21.9236C63.2344 21.9377 63.2347 21.9553 63.2361 21.9718C63.2374 21.9862 63.2395 22.0012 63.2475 22.0134C63.2555 22.0256 63.2707 22.0342 63.2849 22.0303C63.3065 22.024 63.3107 21.9951 63.3066 21.9731C63.3024 21.9502 63.2938 21.928 63.2813 21.9082C63.2783 21.9071 63.2753 21.9065 63.2722 21.9065C63.2608 21.9065 63.249 21.9135 63.2431 21.9236Z" fill="url(#paint16_radial_238_1189)"/>
</g>
</g>
</g>
</g>
<g id="g1342">
<g id="g1344">
<g id="g1350">
<g id="g1352">
<path id="path1370" d="M63.3317 22.265C63.3329 22.279 63.3485 22.2915 63.3611 22.2856C63.38 22.2768 63.3701 22.248 63.3575 22.2311L63.3514 22.2301C63.34 22.2382 63.3308 22.251 63.3317 22.265Z" fill="url(#paint17_radial_238_1189)"/>
</g>
</g>
</g>
</g>
<g id="g1372">
<g id="g1374">
<g id="g1380">
<g id="g1382">
<path id="path1400" d="M63.4052 22.4333L63.4034 22.4267C63.3881 22.4286 63.3902 22.4531 63.4025 22.4624C63.4148 22.4717 63.4319 22.4739 63.4427 22.4848C63.4566 22.4986 63.4555 22.5205 63.456 22.5398C63.4566 22.5591 63.4633 22.5824 63.4821 22.5872C63.5013 22.5919 63.52 22.5719 63.5193 22.5524C63.5188 22.5329 63.5047 22.5162 63.4888 22.5046C63.4815 22.4993 63.4737 22.4946 63.4681 22.4876C63.4595 22.4769 63.4577 22.4624 63.4547 22.4491C63.4516 22.4356 63.4456 22.4212 63.4327 22.4156C63.4305 22.4146 63.4279 22.4141 63.4254 22.4141C63.4143 22.4141 63.4028 22.4229 63.4052 22.4333Z" fill="url(#paint18_radial_238_1189)"/>
</g>
</g>
</g>
</g>
<g id="g1402">
<g id="g1404">
<g id="g1410">
<g id="g1412">
<path id="path1430" d="M63.5181 22.704C63.5211 22.7225 63.5346 22.7376 63.5473 22.7516C63.5675 22.7736 63.5879 22.7957 63.6081 22.8177C63.6109 22.8208 63.6141 22.824 63.6182 22.8242C63.6216 22.8244 63.6247 22.8224 63.6273 22.8202C63.6446 22.8051 63.646 22.7755 63.63 22.7589C63.617 22.7454 63.5966 22.7418 63.5803 22.7324C63.5681 22.7254 63.558 22.711 63.5588 22.6985C63.5546 22.6866 63.5503 22.6747 63.5462 22.6628C63.5271 22.6632 63.5149 22.6854 63.5181 22.704ZM63.5588 22.6985C63.5613 22.7056 63.5639 22.7128 63.5664 22.7199L63.564 22.6863C63.5606 22.6899 63.5591 22.694 63.5588 22.6985Z" fill="url(#paint19_radial_238_1189)"/>
</g>
</g>
</g>
</g>
<g id="g1432">
<g id="g1434">
<g id="g1440">
<g id="g1442">
<path id="path1460" d="M58.2893 22.4983L58.2786 22.4955C58.2844 22.541 58.2954 22.5859 58.3116 22.6289C58.3461 22.6156 58.3571 22.5697 58.3444 22.5354C58.3318 22.501 58.3025 22.4758 58.2744 22.4521L58.2893 22.4983Z" fill="url(#paint20_radial_238_1189)"/>
</g>
</g>
</g>
</g>
<g id="g1462">
<g id="Clip path group">
<mask id="mask0_238_1189" style="mask-type:luminance" maskUnits="userSpaceOnUse" x="0" y="0" width="83" height="58">
<g id="clipPath1468">
<path id="path1466" d="M0 -0.000144958H82.4854V57.4863H0V-0.000144958Z" fill="white"/>
</g>
</mask>
<g mask="url(#mask0_238_1189)">
<g id="g1464">
<g id="g1470">
<path id="path1472" d="M48.5608 40.6896C48.6045 40.6909 48.6657 40.6933 48.7443 40.6972C48.9413 40.7074 49.0727 40.7123 49.1384 40.7123C49.2245 40.7123 49.3824 40.7067 49.6116 40.6953C49.6695 40.6927 49.7133 40.6909 49.7429 40.6896L49.7448 40.8438C49.5955 40.8438 49.5012 40.8622 49.4618 40.899C49.4226 40.9358 49.403 41.0265 49.403 41.1713V43.0085C49.403 43.1582 49.4226 43.2503 49.4618 43.2846C49.5012 43.3189 49.5955 43.3359 49.7448 43.3359V43.4883C49.5788 43.4807 49.4535 43.4756 49.3692 43.473C49.2848 43.4705 49.2174 43.4693 49.1673 43.4693C49.1105 43.4693 49.0378 43.4705 48.9491 43.473C48.8602 43.4756 48.7308 43.4807 48.5608 43.4883V43.3359C48.7114 43.3359 48.8057 43.3176 48.8437 43.2807C48.8817 43.244 48.9008 43.1533 48.9008 43.0085V41.1713C48.9008 41.0241 48.8814 40.9326 48.8428 40.897C48.8041 40.8615 48.7101 40.8438 48.5608 40.8438V40.6896Z" fill="#2E2E75"/>
</g>
<g id="g1474">
<path id="path1476" d="M50.0464 40.6901C50.1481 40.6964 50.2348 40.7012 50.3061 40.7043C50.3777 40.7076 50.441 40.7091 50.4965 40.7091C50.5416 40.7091 50.5972 40.7076 50.6636 40.7043C50.73 40.7012 50.8164 40.6964 50.9234 40.6901L52.4629 42.7367V41.2537C52.4629 41.0684 52.4404 40.9537 52.3953 40.91C52.3502 40.8662 52.2471 40.8443 52.0862 40.8443V40.6901C52.1905 40.6964 52.2806 40.7012 52.3566 40.7043C52.4326 40.7076 52.5008 40.7091 52.5614 40.7091C52.5987 40.7091 52.647 40.7076 52.7062 40.7043C52.7655 40.7012 52.8531 40.6964 52.9689 40.6901V40.8443C52.8273 40.8482 52.7358 40.87 52.6946 40.91C52.6534 40.95 52.6328 41.0633 52.6328 41.2498V42.3942C52.6328 42.6378 52.6319 42.8434 52.6299 43.0109C52.6281 43.1785 52.6244 43.3454 52.6194 43.5117L52.4146 43.4888L50.5795 41.0556V42.9272C50.5795 43.1201 50.6017 43.2366 50.6462 43.2766C50.6906 43.3165 50.794 43.3364 50.9562 43.3364L50.9543 43.4888C50.8359 43.4812 50.7411 43.4762 50.6703 43.4736C50.5996 43.4711 50.5376 43.4698 50.4849 43.4698C50.454 43.4698 50.4102 43.4711 50.3535 43.4736C50.2969 43.4762 50.1984 43.4812 50.058 43.4888V43.3364C50.2086 43.3353 50.3055 43.3137 50.3487 43.2717C50.3919 43.2299 50.4134 43.115 50.4134 42.9272V41.1718C50.4134 41.0259 50.3934 40.9347 50.3535 40.8986C50.3137 40.8624 50.2228 40.8443 50.0812 40.8443H50.0444L50.0464 40.6901Z" fill="#2E2E75"/>
</g>
<g id="g1478">
<path id="path1480" d="M54.1106 40.8437V43.3321H54.3888C54.5587 43.3321 54.6897 43.3232 54.7818 43.3055C54.8739 43.2877 54.9546 43.2579 55.0242 43.216C55.1775 43.1284 55.2924 42.9894 55.3691 42.799C55.4457 42.6086 55.484 42.3694 55.484 42.0812C55.484 41.6395 55.3967 41.3229 55.2223 41.1313C55.0476 40.9396 54.7538 40.8437 54.3405 40.8437H54.1106ZM53.2799 40.6895C53.3366 40.6932 53.3982 40.6962 53.4644 40.6981C53.5307 40.7 53.6303 40.7009 53.7628 40.7009C53.8362 40.7009 53.9554 40.699 54.1203 40.6953C54.285 40.6914 54.4138 40.6895 54.5066 40.6895C54.9869 40.6895 55.3628 40.8138 55.6346 41.0627C55.9063 41.3115 56.0422 41.656 56.0422 42.0965C56.0422 42.542 55.9133 42.8854 55.6558 43.1265C55.3984 43.3677 55.0312 43.4883 54.5549 43.4883C54.475 43.4883 54.3514 43.4857 54.1839 43.4807C54.0165 43.4755 53.8897 43.473 53.8034 43.473C53.712 43.473 53.6231 43.4743 53.5369 43.4768C53.4507 43.4794 53.365 43.4832 53.2799 43.4883V43.3359C53.4229 43.3359 53.5133 43.3172 53.5514 43.2798C53.5893 43.2423 53.6083 43.1518 53.6083 43.0084V41.1713C53.6083 41.0265 53.5893 40.9364 53.5514 40.9009C53.5133 40.8653 53.4229 40.8462 53.2799 40.8437V40.6895Z" fill="#2E2E75"/>
</g>
<g id="g1482">
<path id="path1484" d="M56.3418 40.6896C56.3856 40.6909 56.4467 40.6933 56.5253 40.6972C56.7223 40.7074 56.8537 40.7123 56.9195 40.7123C57.0056 40.7123 57.1634 40.7067 57.3926 40.6953C57.4506 40.6927 57.4944 40.6909 57.5239 40.6896L57.5259 40.8438C57.3765 40.8438 57.2822 40.8622 57.2429 40.899C57.2036 40.9358 57.184 41.0265 57.184 41.1713V43.0085C57.184 43.1582 57.2036 43.2503 57.2429 43.2846C57.2822 43.3189 57.3765 43.3359 57.5259 43.3359V43.4883C57.3598 43.4807 57.2345 43.4756 57.1502 43.473C57.0659 43.4705 56.9985 43.4693 56.9484 43.4693C56.8916 43.4693 56.8189 43.4705 56.7301 43.473C56.6412 43.4756 56.5118 43.4807 56.3418 43.4883V43.3359C56.4925 43.3359 56.5868 43.3176 56.6249 43.2807C56.6628 43.244 56.6818 43.1533 56.6818 43.0085V41.1713C56.6818 41.0241 56.6625 40.9326 56.6239 40.897C56.5852 40.8615 56.4911 40.8438 56.3418 40.8438V40.6896Z" fill="#2E2E75"/>
</g>
<g id="g1486">
<path id="path1488" d="M58.9797 41.2815L58.6011 42.323H59.337L58.9797 41.2815ZM59.0473 40.6533H59.2578L60.1716 43.1303C60.2023 43.2141 60.2382 43.2693 60.2787 43.2959C60.3193 43.3226 60.3846 43.3358 60.4748 43.3358V43.4883C60.3099 43.4806 60.1899 43.4755 60.1145 43.4729C60.0392 43.4704 59.9789 43.4692 59.9339 43.4692C59.8785 43.4692 59.807 43.4704 59.7195 43.4729C59.6319 43.4755 59.5071 43.4806 59.3448 43.4883V43.3358C59.4426 43.3334 59.5125 43.3203 59.5543 43.2969C59.5962 43.2734 59.6172 43.2357 59.6172 43.1836C59.6172 43.1658 59.6161 43.1493 59.6143 43.1342C59.6123 43.1188 59.6095 43.1056 59.6055 43.0942L59.3949 42.4791H58.5528L58.3905 42.9304C58.388 42.9379 58.3848 42.9475 58.3809 42.9589C58.3422 43.0667 58.323 43.1417 58.323 43.1836C58.323 43.2369 58.338 43.274 58.3684 43.2949C58.3986 43.3159 58.4601 43.3295 58.5528 43.3358V43.4883C58.4833 43.4832 58.4166 43.4794 58.3529 43.4767C58.2891 43.4743 58.2308 43.4729 58.178 43.4729C58.133 43.4729 58.0799 43.4743 58.0187 43.4767C57.9575 43.4794 57.8915 43.4832 57.8208 43.4883V43.3358C57.9082 43.3358 57.9721 43.3226 58.012 43.2959C58.0518 43.2693 58.0886 43.2096 58.1221 43.117L59.0473 40.6533Z" fill="#2E2E75"/>
</g>
<g id="g1490">
<path id="path1492" fill-rule="evenodd" clip-rule="evenodd" d="M28.7739 40.9467L28.7704 41.2306L28.7696 41.28L28.7659 41.428L28.767 41.4529L28.7624 41.5083L28.7615 41.5268L28.7568 41.8848L28.7559 41.9095V41.9343L28.7535 42.1069L28.7544 42.1318V42.2057L28.7498 42.2613L28.7489 42.2798L28.7505 42.3106L28.7489 42.329L28.7505 42.36L28.7489 42.3785L28.7505 42.4094L28.7489 42.4278L28.7483 42.5513L28.2955 42.1522L28.2907 41.2553L28.2911 41.2305V40.9343C28.2919 40.9335 28.2858 40.9222 28.2868 40.9233L28.2993 40.9109C28.3147 40.9178 28.293 40.9159 28.3169 40.9159H28.3357L28.367 40.9143L28.3857 40.9159L28.417 40.9143L28.4359 40.9159L28.4672 40.9143L28.486 40.9159L28.5172 40.9143L28.536 40.9159L28.5674 40.9143L28.5861 40.9159L28.6174 40.9143L28.6363 40.9159L28.6675 40.9143L28.6862 40.9159L28.7176 40.9143L28.7364 40.9159L28.774 40.9151L28.7739 40.9467ZM26.3929 43.244C26.3542 43.3248 26.2758 43.4789 26.1953 43.5272C26.1288 43.567 26.1217 43.5909 26.0264 43.62C25.9655 43.6386 25.9218 43.6251 25.8564 43.6251C25.7517 43.4382 25.6613 43.1282 25.8423 42.951C25.9395 42.8556 26.0363 42.7659 26.1663 42.7026C26.2881 42.643 26.419 42.5798 26.5262 42.5575C26.5262 42.7627 26.4563 43.1122 26.3929 43.244ZM25.9791 41.3147C25.9339 41.3804 25.8541 41.4404 25.7687 41.4404H25.6747C25.6355 41.4404 25.4278 41.3772 25.4243 41.3788C25.4215 41.3454 25.3998 41.3157 25.3916 41.2626C25.3878 41.2393 25.3858 41.2003 25.3953 41.1713C25.4114 41.122 25.465 40.9953 25.5307 40.9899L25.5245 40.9775C25.5404 40.9763 25.6299 40.9227 25.6571 40.9107C25.6781 40.9014 25.738 40.8781 25.7671 40.8699C25.8431 40.8483 25.932 40.8294 26.0066 40.8294L26.034 41.0513L26.0309 41.0764V41.101C26.0347 41.1416 26.0123 41.2665 25.9791 41.3147ZM41.6084 45.2978L41.6023 45.3034L41.6096 45.2918L41.6048 45.2961L41.3577 45.0758L41.3416 45.0609L41.2072 44.9403L41.2015 44.9454L41.2089 44.9338C41.1478 44.9285 41.1798 44.8634 41.0768 44.8719L41.0607 44.9824C41.0433 45.1672 40.9873 45.4556 40.8971 45.6077C40.8719 45.6506 40.8515 45.6964 40.8269 45.737C40.8052 45.7731 40.7546 45.8453 40.7341 45.8669C40.6724 45.9321 40.5497 46.0659 40.4749 46.1052C40.4474 46.1195 40.4303 46.1367 40.408 46.15C40.3821 46.1655 40.3561 46.1821 40.3287 46.1956C40.2714 46.2237 40.2128 46.2459 40.1575 46.2737C40.1208 46.2923 40.0422 46.3195 40.0028 46.3302C39.9609 46.3416 39.9012 46.3522 39.8525 46.3685C39.7926 46.3884 39.5946 46.4203 39.5261 46.4239C39.4459 46.4281 39.4142 46.4385 39.3492 46.4395C39.2477 46.4411 39.2439 46.4412 39.186 46.4455L39.161 46.4448H39.0106L38.9417 46.4409L38.9356 46.4393C38.8174 46.4393 38.7806 46.4381 38.6627 46.4251C38.5966 46.4177 38.474 46.4011 38.4207 46.3993C38.3658 46.3975 38.2427 46.3769 38.1578 46.363C38.1127 46.3556 37.9783 46.3379 37.9292 46.3214C37.8964 46.3104 37.6983 46.2742 37.666 46.2688C37.5895 46.2563 37.4952 46.2284 37.4196 46.2148C37.3356 46.1996 37.2561 46.1725 37.1687 46.153C37.1397 46.1466 36.9423 46.0986 36.9143 46.0863C36.8492 46.058 36.7395 46.0352 36.6704 46.0153C36.6358 46.0053 36.5978 45.9943 36.5518 45.9758C36.5455 45.9734 36.457 45.9469 36.4388 45.9442C36.3693 45.9337 36.2755 45.8855 36.2047 45.8692C36.1337 45.8527 36.0613 45.814 35.9758 45.7947C35.9042 45.7785 35.7805 45.717 35.7121 45.7012C35.6408 45.6848 35.5499 45.6404 35.4802 45.6178C35.3092 45.5623 35.1453 45.4924 34.9775 45.4279C34.6905 45.3175 34.3125 45.1638 34.0405 45.0436C33.7418 44.9115 33.4077 44.7709 33.1116 44.6258C33.0516 44.5963 32.9708 44.563 32.8823 44.5189C32.8069 44.4814 32.7341 44.4525 32.6485 44.41C32.5926 44.3823 32.449 44.3027 32.3979 44.2892C32.3738 44.2829 32.2331 44.2069 32.1942 44.1905C32.1723 44.1811 32.1211 44.1531 32.0837 44.1332C32.046 44.1133 32.0157 44.1021 31.976 44.0793C31.9334 44.0548 31.897 44.0378 31.8559 44.0133C31.8363 44.0018 31.7764 43.9731 31.7469 43.9533C31.7021 43.9232 31.3036 43.6761 31.2847 43.6745L31.4641 43.5541L31.4594 43.5452L31.4645 43.5507L31.588 43.4543L31.5846 43.4465C31.6137 43.4438 31.7021 43.3516 31.7233 43.3293C31.7452 43.3062 31.8459 43.2238 31.8356 43.1992H31.8543C31.8469 43.1817 31.904 43.126 31.9217 43.1053C31.9428 43.0808 31.9683 43.0341 31.9884 43.0044C32.0416 42.9257 32.0599 42.8788 32.0935 42.8117C32.1591 42.6805 32.2016 42.5118 32.2112 42.3785L32.2224 42.2426L32.2219 42.1933L32.2143 42.1259L32.2175 42.1193C32.2175 42.0226 32.1636 41.7826 32.1184 41.68C32.0896 41.6143 32.0692 41.5514 32.0188 41.4695C32 41.4389 31.9213 41.3077 31.8857 41.3046C31.893 41.2871 31.8637 41.2576 31.8356 41.2553L31.8423 41.2432L31.5905 41.0272L31.5745 41.0123L31.4639 40.9122L31.5036 40.9116L31.5288 40.9104H31.849V40.9109H34.1936V41.2354L34.191 41.3417L34.1904 41.3664L34.1875 41.465L34.1783 41.8477L34.1771 41.8725L33.7014 41.8415C33.6849 41.8406 33.6856 41.8399 33.6638 41.8417L33.6386 41.8409L33.5573 41.8372L33.5322 41.8361H33.4572L33.3632 41.8396C33.1508 41.846 32.9014 41.885 32.6982 42.0376C32.5686 42.1347 32.5373 42.2093 32.4787 42.3307C32.4531 42.3833 32.4175 42.5746 32.4241 42.6624L32.4233 42.687V42.7118C32.4305 42.7959 32.4299 42.8383 32.4397 42.9231C32.4475 42.9911 32.481 43.0757 32.4901 43.1331C32.5078 43.2446 32.613 43.4465 32.6415 43.5063C32.6845 43.5965 32.7834 43.7489 32.8637 43.8401C32.8966 43.8774 33.1176 44.1331 33.1691 44.1373L33.1624 44.1494L33.1675 44.1448L33.4146 44.365L33.4202 44.3599L33.4129 44.3716L33.4177 44.367L33.6397 44.5628L33.6456 44.5574L33.6382 44.5691C33.6632 44.5713 33.7242 44.6303 33.7548 44.6464C33.7938 44.6667 33.8349 44.6982 33.8755 44.7187C33.9172 44.7396 34.1146 44.8429 34.1146 44.7607V44.7545C34.1146 44.7388 34.0392 44.6639 34.0144 44.662L34.0196 44.6563L33.7696 44.4336L33.7635 44.4394L33.7708 44.4277C33.747 44.4249 33.6243 44.3072 33.5966 44.2839C33.5714 44.2627 33.4167 44.1953 33.3883 44.1929C33.3847 44.1774 33.3566 44.1345 33.3461 44.1234C33.3259 44.1019 33.3246 44.0896 33.3143 44.0719C33.2874 44.0258 33.2577 43.9899 33.2408 43.9507C33.2105 43.8802 33.1607 43.8016 33.1302 43.7139C33.0591 43.51 33.0189 43.3664 33.0189 43.1376C33.0189 42.5105 33.4812 42.3844 33.9893 42.3723L34.0395 42.3741H34.0896L34.165 42.3774L34.1682 42.3848L34.1566 43.2611L34.1576 43.2858V43.7794C34.1624 43.8312 34.1282 43.9017 34.1851 43.9568C34.2094 43.9805 34.3486 44.1109 34.3713 44.1127L34.3646 44.1247L34.3698 44.1198L34.6167 44.3403L34.6222 44.3352L34.6149 44.3469C34.6723 44.3533 34.6969 44.4672 34.7532 44.3843L34.7573 43.3228L34.7595 43.3042L34.7579 43.2734L34.7595 43.2548L34.7579 43.224L34.7595 43.2055L34.7671 42.7735L34.7658 42.755L34.7673 42.7241L34.7658 42.7056L34.7694 42.4957L34.7713 42.471V42.4463L34.7722 42.4094H34.8471C34.8644 42.4094 34.8785 42.3954 34.8784 42.3783C34.8784 42.3553 34.8743 42.3668 34.8722 42.3414C34.8344 42.3383 34.8067 42.2862 34.7782 42.2674L34.7811 42.0692H34.7832V40.9109H35.4674V40.9101H35.8939C35.939 40.9101 35.965 40.8595 35.9383 40.8236L35.6463 40.4313C35.618 40.3935 35.5732 40.3711 35.5255 40.3711H33.7063C33.6661 40.3701 33.6395 40.3696 33.6309 40.3696H33.3993C33.3868 40.3696 33.0967 40.3702 32.6485 40.3711C31.2521 40.3736 28.3205 40.3789 27.4592 40.3789H26.1381V40.3913H26.1256V40.4221C26.1256 40.4404 26.3354 40.6302 26.3572 40.6319L26.3505 40.644L26.3558 40.639L26.6027 40.8596L26.6082 40.8545L26.6008 40.8662L26.6698 40.9164L27.6971 40.9159L27.694 41.5576L27.6971 41.9465H27.6782C27.6586 41.9465 27.5656 41.9256 27.5339 41.9225C27.4815 41.9176 27.4379 41.9128 27.3826 41.9045C27.2961 41.8916 27.1428 41.8848 27.096 41.8848H27.0083C26.992 41.8089 26.9657 41.7316 26.9293 41.6233C26.9106 41.5679 26.899 41.5439 26.8778 41.4951C26.8598 41.4534 26.8431 41.4067 26.827 41.3771C26.7924 41.3141 26.7395 41.2312 26.6903 41.1521C26.6668 41.1144 26.6394 41.0792 26.6073 41.0484C26.5921 41.0338 26.5731 41.0097 26.5666 41.0011C26.5511 40.9809 26.5247 40.9788 26.5325 40.9591L26.5276 40.9644L26.1812 40.6567L26.1751 40.6625L26.1824 40.6508C26.1447 40.6465 25.9982 40.4693 25.9502 40.4653L25.957 40.4533C25.945 40.4518 25.8676 40.3997 25.8526 40.3889C25.8183 40.3644 25.779 40.3573 25.7403 40.339C25.6953 40.3179 25.5698 40.2926 25.5307 40.2926H25.4618L25.4306 40.2941L25.2807 40.3191C25.2515 40.3363 25.1573 40.3556 25.1146 40.3757C25.0519 40.4053 25.0012 40.4338 24.9474 40.4704C24.8485 40.538 24.7919 40.6496 24.7919 40.7986L24.2884 40.3573L24.241 40.3522L24.216 40.3534C24.0099 40.3695 23.8116 40.3573 23.7448 40.3573C23.6331 40.3573 23.5264 40.3574 23.4129 40.3573C23.2905 40.3573 23.214 40.3547 23.0641 40.3541C22.8681 40.3533 22.5815 40.3417 22.4127 40.3543L22.3876 40.3534H22.1873C22.155 40.3567 22.1735 40.3559 22.1436 40.3665V40.3975C22.1613 40.4225 22.2985 40.5557 22.3257 40.5583L22.3182 40.57L22.3232 40.5655L22.5709 40.7844L22.5989 40.8127L22.5943 40.8171C22.6498 40.8217 22.6346 40.892 22.7382 40.8913C22.8114 40.8907 22.8845 40.8912 22.9574 40.8912C23.0879 40.8912 23.2838 40.8834 23.3894 40.892H23.6149L23.6399 40.8942L24.4162 40.892H24.5164L24.5415 40.8912C24.5839 40.8943 24.801 40.8757 24.8143 40.8938C24.8205 40.9024 24.8485 40.9653 24.8612 40.9886C24.8669 40.9989 24.902 41.0638 24.9089 41.0717C24.9483 41.1174 25.1889 41.3681 25.2308 41.3729L25.2234 41.3846L25.2287 41.3796L25.4756 41.6002L25.4812 41.595L25.4744 41.6071C25.4929 41.609 25.6046 41.7072 25.6232 41.7258C25.6703 41.7731 25.7276 41.7996 25.7849 41.838C25.8756 41.8984 26.0552 41.9633 26.1506 41.9712C26.1466 41.9767 25.9012 42.0513 25.886 42.0548C25.8125 42.0713 25.6851 42.138 25.6028 42.1779C25.4579 42.2481 25.2264 42.4408 25.1731 42.5749C25.1024 42.7529 25.156 42.9304 25.2159 43.0865C25.2541 43.1862 25.3114 43.2695 25.3549 43.3365C25.3787 43.3731 25.5141 43.5415 25.5563 43.5452L25.549 43.5569L25.5544 43.552L25.8018 43.771L25.8174 43.7863L26.0519 43.9945L26.0571 43.9896L26.0504 44.0017C26.078 44.0039 26.1261 44.0569 26.1534 44.0728C26.193 44.0959 26.2296 44.11 26.2707 44.1302C26.3397 44.1639 26.4367 44.1649 26.4839 44.1652C26.6614 44.1661 26.7979 44.0271 26.8846 43.9105C26.963 43.8053 27.0282 43.6537 27.0559 43.5089C27.0836 43.3638 27.1211 43.184 27.1211 43.0573C27.1211 42.9456 27.1296 42.7127 27.1212 42.6131L27.1085 42.4402L27.1271 42.4387L27.3276 42.4269L27.3903 42.4217L27.6093 42.4232L27.6782 42.4278C27.701 42.4288 27.6818 42.4292 27.6984 42.4217L27.7041 43.5079V43.5819L27.7053 43.6067L27.7037 43.6432L27.9303 43.8462L27.9354 43.8415L27.9282 43.8532L27.934 43.8478L28.1808 44.0683L28.186 44.0636L28.1792 44.0756C28.216 44.0796 28.2294 44.125 28.2542 44.125H28.2856C28.2929 44.1053 28.2981 44.1119 28.2981 44.088L28.295 43.2302L28.2981 42.5019C28.3278 42.516 28.4668 42.5489 28.5157 42.5603C28.5786 42.5749 28.7189 42.6415 28.7489 42.6439L28.7505 42.6748L28.7489 42.7056L28.7505 42.7241L28.7489 42.755L28.7505 42.7735L28.7489 42.8043L28.7498 42.8228L28.7544 42.8907V42.9154L28.7533 42.9401L28.7559 43.0882L28.7555 43.1129L28.7679 43.4462L28.7802 43.656C28.7829 43.6989 28.7851 43.7343 28.7915 43.793C28.797 43.8446 28.7885 43.8344 28.8194 43.8643C28.8373 43.8818 28.8583 43.9121 28.8872 43.9155L28.8798 43.9272L28.8854 43.9222L29.1322 44.1427L29.1376 44.1377L29.1308 44.1497C29.1746 44.1544 29.3117 44.3225 29.3437 44.3225H29.375V44.3102H29.3875L29.386 44.2547L29.3821 44.1867L29.3609 43.7856L29.3594 43.7175L29.3562 43.5696C29.3558 43.5597 29.3499 43.5397 29.3508 43.5388L29.35 43.5141C29.3537 43.4644 29.3469 43.3579 29.3469 43.3397V43.2224V42.991V42.7596C29.3469 42.7018 29.3389 42.597 29.3508 42.4527V42.4279V42.4032L29.3562 42.329L29.3543 42.3105L29.3582 42.1378L29.3586 42.0884L29.3606 41.9588V41.9094L29.3633 41.7737L29.3634 41.7491L29.3679 41.6812V41.6565L29.367 41.6317L29.3706 41.4343L29.3723 41.3849L29.3708 40.959L29.357 40.9651L29.3062 40.9161L29.3687 40.9159L29.3875 40.9128L30.2014 40.9159C30.156 40.9827 30.1326 41.1118 30.1326 41.1689V41.2367C30.1326 41.2868 30.1466 41.3582 30.162 41.4247C30.1787 41.4963 30.2154 41.5551 30.2355 41.6241C30.2434 41.6508 30.3141 41.7713 30.3438 41.8C30.3661 41.8217 30.4938 41.9386 30.5151 41.9406L30.5077 41.9523L30.5132 41.9473L30.7603 42.1675L30.7655 42.1628L30.7587 42.1748C30.7947 42.1778 30.8133 42.2146 30.8351 42.2353C30.8777 42.2754 30.8887 42.2417 30.9152 42.2243C30.818 42.0247 30.7336 41.8896 30.7336 41.7181C30.7336 41.7075 30.7274 41.6911 30.7274 41.6873C30.7274 41.6282 30.7398 41.509 30.7741 41.4371C30.7991 41.3848 30.8835 41.2415 30.9408 41.2364L30.934 41.2245C30.9359 41.2243 31.0807 41.1532 31.1015 41.1461C31.1494 41.13 31.2139 41.1134 31.2596 41.1134H31.3534C31.3912 41.1134 31.4694 41.1129 31.4943 41.1659C31.5179 41.2164 31.5389 41.2666 31.5505 41.3153C31.5784 41.4331 31.605 41.5093 31.6167 41.6317C31.6291 41.7613 31.6276 41.8737 31.6052 41.9852C31.593 42.0466 31.5791 42.1032 31.564 42.1574C31.5488 42.2122 31.53 42.2449 31.5062 42.3129C31.4734 42.4064 31.3877 42.5164 31.3483 42.5859C31.3052 42.6622 31.182 42.779 31.1171 42.8429C31.0403 42.9186 30.941 43.006 30.8489 43.066C30.7988 43.0985 30.7482 43.1344 30.7076 43.155C30.681 43.1685 30.6605 43.1845 30.6283 43.2004C30.6011 43.2138 30.5689 43.2273 30.5458 43.2424C30.5305 43.222 30.2231 43.0727 30.1649 43.0441C30.0945 43.0092 29.8363 42.891 29.757 42.8977L29.7318 42.8969C29.6691 42.9015 29.6569 42.9195 29.6312 42.959C29.6198 42.9767 29.5999 42.99 29.5884 43.0077C29.5831 43.0158 29.5699 43.0389 29.5575 43.0583C29.5084 43.1349 29.469 43.2088 29.469 43.2795V43.3228C29.469 43.3542 29.5177 43.4425 29.5634 43.4465L29.556 43.4582L29.5612 43.4535L29.8085 43.6736L29.8138 43.6687L29.807 43.6808C29.8331 43.6836 30.002 43.8454 30.0307 43.8737C30.0898 43.9318 30.2457 43.9554 30.2891 43.9514L30.3141 43.951L30.3705 43.9461C30.5021 43.9384 30.8702 43.875 31.0613 43.7822L31.8423 44.2364L31.8356 44.2484C31.8557 44.2501 32.2462 44.4854 32.2818 44.5122C32.3071 44.5313 32.4864 44.6256 32.5103 44.6338C32.5469 44.6463 32.6923 44.7203 32.7271 44.7393C32.8685 44.8167 33.0246 44.8857 33.187 44.9653C33.3305 45.0358 33.4783 45.0965 33.642 45.1772C33.798 45.2542 33.9608 45.3157 34.1219 45.3953C34.2746 45.4709 34.4332 45.5234 34.5643 45.5887C34.7229 45.6677 34.9106 45.7226 35.0483 45.7901C35.1942 45.8616 35.3565 45.9041 35.5244 45.9817C35.6069 46.0196 35.6764 46.0409 35.7624 46.0746C35.8277 46.1 35.9343 46.1291 35.9959 46.1585C36.0565 46.1874 36.1749 46.2223 36.2384 46.2473C36.3007 46.2719 36.4217 46.3054 36.4842 46.3315C36.5479 46.3582 36.6592 46.3898 36.7419 46.417C36.8332 46.4469 36.9092 46.4737 36.9939 46.4957C37.1236 46.5291 37.3022 46.5982 37.4614 46.6322C37.5363 46.6482 37.6061 46.6745 37.6946 46.6938C37.7304 46.7016 37.8013 46.7244 37.8239 46.7275C37.8668 46.7335 37.933 46.7509 37.9595 46.7595C38.0095 46.7759 38.1695 46.8108 38.2292 46.8183C38.3104 46.8283 38.3753 46.8508 38.4658 46.8658C38.5959 46.8874 38.8009 46.9246 38.9544 46.939C38.9909 46.9424 39.4415 46.9816 39.4428 46.9824H39.8247C39.8272 46.9808 40.1224 46.9536 40.1577 46.9492C40.2101 46.9428 40.2698 46.931 40.3183 46.92C40.3666 46.9092 40.4398 46.8849 40.4995 46.876C40.5672 46.866 40.7457 46.7925 40.8379 46.7469C40.9032 46.7145 40.9445 46.6876 41.0051 46.6524C41.0363 46.6344 41.1377 46.5459 41.1587 46.5439L41.1515 46.5322L41.1578 46.5376L41.2581 46.439L41.2521 46.4332C41.2932 46.4288 41.407 46.2417 41.4255 46.2157C41.4816 46.1367 41.5029 46.0569 41.5497 45.9608C41.5846 45.8892 41.6083 45.7505 41.6253 45.6841C41.6421 45.6178 41.6587 45.4253 41.6654 45.4149V45.3532L41.6084 45.2978Z" fill="#2E2E75"/>
</g>
<g id="g1494">
<path id="path1496" d="M37.337 43.8008C37.311 43.8008 37.2907 43.7935 37.276 43.7789C37.2613 43.7644 37.2512 43.7462 37.2456 43.7244C37.2401 43.7025 37.2401 43.6807 37.2456 43.6589C37.2512 43.6371 37.2613 43.6188 37.276 43.6044C37.5343 43.397 37.7511 43.2207 37.9265 43.075C38.1017 42.9296 38.2419 42.7988 38.3471 42.6823C38.4522 42.566 38.527 42.4569 38.5713 42.3549C38.6156 42.2532 38.6376 42.1422 38.6376 42.0221C38.6376 41.9457 38.6322 41.8713 38.6211 41.7986C38.61 41.7259 38.5879 41.6621 38.5547 41.6076C38.5215 41.553 38.4763 41.5085 38.419 41.4738C38.3618 41.4394 38.2871 41.422 38.1949 41.422C38.1064 41.422 38.0307 41.4338 37.968 41.4575C37.9051 41.4811 37.8526 41.5102 37.8102 41.5448C37.7677 41.5794 37.7373 41.6158 37.7188 41.6539C37.7004 41.6921 37.6912 41.724 37.6912 41.7494C37.6912 41.7602 37.692 41.7748 37.694 41.7931C37.6958 41.8112 37.7014 41.8285 37.7106 41.8448C37.7197 41.8612 37.7355 41.8757 37.7576 41.8885C37.7798 41.9013 37.8111 41.9076 37.8518 41.9076C37.9145 41.9076 37.9559 41.9259 37.9762 41.9622C37.9965 41.9986 38.0067 42.0386 38.0067 42.0822C38.0067 42.1259 37.9854 42.1658 37.9431 42.2022C37.9005 42.2386 37.8424 42.2568 37.7687 42.2568C37.6985 42.2568 37.6413 42.2441 37.597 42.2186C37.5528 42.1933 37.5177 42.1613 37.492 42.1231C37.466 42.0849 37.4486 42.0432 37.4394 41.9976C37.4301 41.9521 37.4255 41.9095 37.4255 41.8695C37.4255 41.7858 37.445 41.7058 37.4837 41.6294C37.5225 41.553 37.5786 41.4866 37.6525 41.4302C37.7262 41.3739 37.8176 41.3293 37.9265 41.2965C38.0353 41.2638 38.1617 41.2475 38.3056 41.2475C38.4494 41.2475 38.5777 41.2666 38.6903 41.3047C38.8028 41.3429 38.8959 41.3948 38.9698 41.4603C39.0436 41.5257 39.0999 41.603 39.1387 41.6921C39.1774 41.7813 39.1967 41.875 39.1967 41.9731C39.1967 42.1149 39.156 42.2513 39.0749 42.3822C38.9938 42.5132 38.8904 42.6358 38.765 42.7506C38.6395 42.8651 38.5021 42.9706 38.3526 43.0669C38.2032 43.1633 38.0601 43.2516 37.9237 43.3315C37.9051 43.3389 37.8959 43.3516 37.8959 43.3697C37.8959 43.3844 37.9051 43.3916 37.9237 43.3916H38.7207C38.7686 43.3916 38.8102 43.3871 38.8453 43.3779C38.8803 43.3688 38.9117 43.3525 38.9393 43.3288C38.9671 43.3052 38.9947 43.2707 39.0224 43.2251C39.05 43.1797 39.0786 43.1188 39.1082 43.0423C39.1155 43.0279 39.1284 43.016 39.147 43.0069C39.1653 42.9979 39.1838 42.9942 39.2023 42.9961C39.2208 42.9979 39.2373 43.0042 39.2521 43.0151C39.2667 43.0261 39.2742 43.0406 39.2742 43.0587C39.2447 43.1824 39.2152 43.3015 39.1856 43.4161C39.156 43.5307 39.1433 43.6589 39.147 43.8008H37.337Z" fill="#2E2E75"/>
</g>
<g id="g1498">
<path id="path1500" d="M41.7207 42.5564C41.7207 42.4181 41.7077 42.2827 41.6819 42.1499C41.656 42.0172 41.6146 41.8989 41.5574 41.7953C41.5001 41.6916 41.4264 41.608 41.3359 41.5443C41.2455 41.4807 41.1339 41.4488 41.0011 41.4488C40.8572 41.4488 40.7353 41.4807 40.6358 41.5443C40.5362 41.608 40.4559 41.6925 40.3951 41.798C40.3341 41.9036 40.2898 42.0226 40.2621 42.1554C40.2345 42.2882 40.2206 42.4254 40.2206 42.5672C40.2206 42.691 40.2335 42.8183 40.2594 42.9491C40.2852 43.0801 40.3276 43.1983 40.3867 43.3037C40.4456 43.4093 40.5231 43.4966 40.6191 43.5656C40.7151 43.6348 40.8331 43.6693 40.9734 43.6693C41.1136 43.6693 41.2317 43.6366 41.3276 43.5711C41.4236 43.5057 41.5001 43.4202 41.5574 43.3147C41.6146 43.2093 41.656 43.0901 41.6819 42.9573C41.7077 42.8246 41.7207 42.691 41.7207 42.5564ZM42.2797 42.4963C42.2797 42.7182 42.2456 42.9147 42.1773 43.0855C42.109 43.2565 42.0149 43.4001 41.895 43.5165C41.7751 43.6329 41.6311 43.7212 41.4633 43.7812C41.2953 43.8412 41.1118 43.8711 40.9125 43.8711C40.739 43.8711 40.5767 43.8429 40.4254 43.7866C40.2741 43.7302 40.1412 43.6467 40.027 43.5357C39.9125 43.4247 39.823 43.2847 39.7585 43.1155C39.6939 42.9464 39.6616 42.7473 39.6616 42.5181C39.6616 42.3327 39.6948 42.1618 39.7613 42.0053C39.8277 41.849 39.9198 41.7153 40.0379 41.6044C40.156 41.4934 40.2953 41.4061 40.4559 41.3425C40.6164 41.2788 40.7926 41.247 40.9845 41.247C41.1653 41.247 41.335 41.2752 41.4938 41.3315C41.6523 41.388 41.7899 41.4689 41.9062 41.5743C42.0223 41.6799 42.1137 41.8099 42.18 41.9644C42.2465 42.1191 42.2797 42.2964 42.2797 42.4963Z" fill="#2E2E75"/>
</g>
<g id="g1502">
<path id="path1504" d="M42.6562 43.8008C42.6302 43.8008 42.61 43.7935 42.5953 43.7789C42.5806 43.7644 42.5704 43.7462 42.5648 43.7244C42.5593 43.7025 42.5593 43.6807 42.5648 43.6589C42.5704 43.6371 42.5806 43.6188 42.5953 43.6044C42.8535 43.397 43.0703 43.2207 43.2457 43.075C43.4209 42.9296 43.5611 42.7988 43.6663 42.6823C43.7715 42.566 43.8462 42.4569 43.8905 42.3549C43.9348 42.2532 43.9568 42.1422 43.9568 42.0221C43.9568 41.9457 43.9513 41.8713 43.9403 41.7986C43.9292 41.7259 43.9072 41.6621 43.8739 41.6076C43.8406 41.553 43.7955 41.5085 43.7382 41.4738C43.681 41.4394 43.6063 41.422 43.5141 41.422C43.4256 41.422 43.3499 41.4338 43.2872 41.4575C43.2244 41.4811 43.1718 41.5102 43.1294 41.5448C43.0869 41.5794 43.0565 41.6158 43.038 41.6539C43.0196 41.6921 43.0104 41.724 43.0104 41.7494C43.0104 41.7602 43.0113 41.7748 43.0132 41.7931C43.015 41.8112 43.0206 41.8285 43.0298 41.8448C43.0389 41.8612 43.0547 41.8757 43.0768 41.8885C43.099 41.9013 43.1303 41.9076 43.171 41.9076C43.2337 41.9076 43.2751 41.9259 43.2954 41.9622C43.3157 41.9986 43.3259 42.0386 43.3259 42.0822C43.3259 42.1259 43.3046 42.1658 43.2623 42.2022C43.2198 42.2386 43.1617 42.2568 43.0879 42.2568C43.0177 42.2568 42.9605 42.2441 42.9162 42.2186C42.872 42.1933 42.837 42.1613 42.8111 42.1231C42.7852 42.0849 42.7678 42.0432 42.7586 41.9976C42.7493 41.9521 42.7447 41.9095 42.7447 41.8695C42.7447 41.7858 42.7642 41.7058 42.8029 41.6294C42.8416 41.553 42.8978 41.4866 42.9717 41.4302C43.0455 41.3739 43.1368 41.3293 43.2457 41.2965C43.3545 41.2638 43.4809 41.2475 43.6248 41.2475C43.7686 41.2475 43.8969 41.2666 44.0095 41.3047C44.122 41.3429 44.2151 41.3948 44.289 41.4603C44.3628 41.5257 44.4191 41.603 44.4579 41.6921C44.4966 41.7813 44.5159 41.875 44.5159 41.9731C44.5159 42.1149 44.4752 42.2513 44.3941 42.3822C44.313 42.5132 44.2096 42.6358 44.0842 42.7506C43.9587 42.8651 43.8213 42.9706 43.6718 43.0669C43.5224 43.1633 43.3794 43.2516 43.2429 43.3315C43.2244 43.3389 43.2152 43.3516 43.2152 43.3697C43.2152 43.3844 43.2244 43.3916 43.2429 43.3916H44.0399C44.0878 43.3916 44.1294 43.3871 44.1645 43.3779C44.1995 43.3688 44.2309 43.3525 44.2585 43.3288C44.2863 43.3052 44.314 43.2707 44.3416 43.2251C44.3692 43.1797 44.3978 43.1188 44.4274 43.0423C44.4347 43.0279 44.4476 43.016 44.4662 43.0069C44.4845 42.9979 44.5031 42.9942 44.5215 42.9961C44.54 42.9979 44.5565 43.0042 44.5713 43.0151C44.5859 43.0261 44.5934 43.0406 44.5934 43.0587C44.5639 43.1824 44.5344 43.3015 44.5048 43.4161C44.4752 43.5307 44.4625 43.6589 44.4662 43.8008H42.6562Z" fill="#2E2E75"/>
</g>
<g id="g1506">
<path id="path1508" d="M45.9826 42.9007C46.1155 42.9007 46.2409 42.9226 46.359 42.9662C46.4771 43.0098 46.5812 43.0699 46.6718 43.1463C46.7621 43.2226 46.8331 43.3127 46.8849 43.4163C46.9364 43.5199 46.9624 43.6337 46.9624 43.7573C46.9624 43.9719 46.919 44.1492 46.8323 44.2892C46.7456 44.4292 46.6367 44.5419 46.5057 44.6275C46.3747 44.7129 46.2326 44.7729 46.0795 44.8075C45.9264 44.8421 45.7815 44.8594 45.645 44.8594C45.5564 44.8594 45.4651 44.852 45.371 44.8375C45.2769 44.8229 45.1929 44.8002 45.1191 44.7694C45.0454 44.7384 44.9844 44.6974 44.9365 44.6465C44.8885 44.5956 44.8645 44.5321 44.8645 44.4557C44.8645 44.3756 44.8885 44.3138 44.9365 44.2702C44.9844 44.2265 45.0454 44.2047 45.1191 44.2047C45.1671 44.2047 45.2132 44.2183 45.2576 44.2456C45.3019 44.2729 45.3239 44.3155 45.3239 44.3738C45.3239 44.4066 45.3165 44.4328 45.3019 44.4529C45.287 44.4728 45.2796 44.4993 45.2796 44.5321C45.2796 44.5538 45.2935 44.5738 45.3212 44.5921C45.3489 44.6101 45.3839 44.6256 45.4263 44.6383C45.4687 44.6511 45.513 44.6611 45.5593 44.6685C45.6052 44.6757 45.6486 44.6793 45.6893 44.6793C45.9254 44.6793 46.1034 44.6029 46.2234 44.4502C46.3434 44.2974 46.4033 44.081 46.4033 43.801C46.4033 43.579 46.3332 43.4026 46.193 43.2717C46.0527 43.1408 45.8111 43.0663 45.4678 43.048C45.4198 43.0444 45.3968 43.0235 45.3987 42.9853C45.4005 42.9471 45.4181 42.9208 45.4513 42.9062C45.7095 42.8154 45.8987 42.6999 46.0186 42.5597C46.1385 42.4198 46.1985 42.2406 46.1985 42.0223C46.1985 41.9459 46.193 41.8715 46.1819 41.7987C46.1708 41.726 46.1487 41.6623 46.1155 41.6077C46.0823 41.5532 46.0371 41.5086 45.9799 41.4741C45.9226 41.4396 45.8479 41.4222 45.7557 41.4222C45.6671 41.4222 45.5905 41.435 45.526 41.4605C45.4614 41.486 45.4089 41.5159 45.3682 41.5505C45.3275 41.585 45.2972 41.6213 45.2769 41.6595C45.2566 41.6977 45.2464 41.7296 45.2464 41.7551C45.2464 41.766 45.2473 41.7805 45.2493 41.7987C45.251 41.8169 45.2566 41.8342 45.2659 41.8505C45.2749 41.8669 45.2907 41.8805 45.3128 41.8915C45.3351 41.9024 45.3663 41.9079 45.407 41.9079C45.4697 41.9079 45.5121 41.926 45.5343 41.9623C45.5564 41.9987 45.5676 42.0387 45.5676 42.0824C45.5676 42.1261 45.5462 42.1661 45.5038 42.2025C45.4614 42.2388 45.4033 42.257 45.3295 42.257C45.2593 42.257 45.2021 42.2442 45.1579 42.2187C45.1137 42.1934 45.0785 42.1616 45.0527 42.1233C45.0268 42.0852 45.0093 42.0434 45.0002 41.9978C44.9909 41.9524 44.9863 41.9097 44.9863 41.8696C44.9863 41.786 45.0057 41.7059 45.0445 41.6296C45.0832 41.5532 45.1394 41.4868 45.2132 41.4304C45.287 41.374 45.3784 41.3295 45.4872 41.2968C45.5961 41.264 45.7225 41.2477 45.8663 41.2477C46.0102 41.2477 46.1385 41.2667 46.2511 41.305C46.3636 41.3431 46.4568 41.395 46.5306 41.4605C46.6044 41.5259 46.6607 41.6032 46.6994 41.6922C46.7382 41.7815 46.7575 41.8751 46.7575 41.9733C46.7575 42.0934 46.7335 42.2025 46.6856 42.3006C46.6377 42.3988 46.5766 42.4861 46.503 42.5625C46.4291 42.6388 46.3461 42.7026 46.2539 42.7534C46.1615 42.8044 46.0693 42.8426 45.977 42.868C45.9697 42.8717 45.9661 42.8789 45.9661 42.8899C45.9661 42.8971 45.9716 42.9007 45.9826 42.9007Z" fill="#2E2E75"/>
</g>
</g>
</g>
</g>
</g>
<g id="g1510">
<g id="g1512">
<g id="g1518">
<g id="g1520">
<path id="path1532" d="M6.25574 23.4737C6.25574 29.9876 11.6325 35.2871 18.2411 35.2871C21.2546 35.2871 24.1348 34.1803 26.3515 32.1711C28.5543 30.1743 29.9131 27.462 30.1779 24.5339L30.3453 22.6798H17.9298V25.4786H27.1584C26.7485 27.2458 25.7909 28.8767 24.4292 30.1108C22.7381 31.6439 20.5405 32.4881 18.2411 32.4881C13.1983 32.4881 9.09549 28.4442 9.09549 23.4737C9.09549 18.503 13.1983 14.4592 18.2411 14.4592C19.8617 14.4592 21.4531 14.8822 22.8438 15.6825C23.5195 16.0713 24.1454 16.5474 24.7038 17.0976L25.2033 17.5896L27.2106 15.6098L26.7112 15.1177C25.9808 14.3985 25.1613 13.7754 24.2753 13.2654C22.4508 12.2153 20.3642 11.6601 18.2411 11.6601C11.6325 11.6601 6.25574 16.9597 6.25574 23.4737Z" fill="url(#paint21_linear_238_1189)"/>
</g>
</g>
</g>
</g>
<g id="g1534">
<g id="g1536">
<g id="g1542">
<g id="g1544">
<path id="path1556" d="M32.7004 13.1961C31.8336 13.7585 31.0764 14.5263 30.5106 15.4167L30.3453 15.6766L32.451 17.7538L32.6929 17.2731C33.0459 16.5724 33.6011 15.9521 34.2569 15.5272C35.338 14.8258 36.675 14.6168 37.9251 14.9535C39.4872 15.3751 40.7364 16.6903 41.1074 18.3041C41.2434 18.8966 41.5268 20.1293 39.1136 22.9698C38.0863 24.1796 37.0117 25.3901 35.9715 26.5615L35.9508 26.5849C35.1894 27.4422 34.4023 28.3287 33.6227 29.228L28.7263 34.875H44.0203V32.0846H34.8697L35.7748 31.0409C36.5371 30.1616 37.3221 29.2772 38.0819 28.4217L38.1036 28.3972C39.1515 27.2167 40.235 25.9963 41.2843 24.7611C42.5578 23.2618 43.3642 21.9298 43.7494 20.6886C44.1657 19.3476 44.0165 18.3336 43.8682 17.6878C43.2695 15.0815 41.2301 12.9519 38.6722 12.2622C38.0347 12.0905 37.3829 12.0059 36.7349 12.0059C35.3144 12.0057 33.9095 12.4119 32.7004 13.1961Z" fill="url(#paint22_linear_238_1189)"/>
</g>
</g>
</g>
</g>
<g id="g1558">
<g id="Clip path group_2">
<mask id="mask1_238_1189" style="mask-type:luminance" maskUnits="userSpaceOnUse" x="0" y="0" width="83" height="58">
<g id="clipPath1564">
<path id="path1562" d="M0 -0.000144958H82.4854V57.4863H0V-0.000144958Z" fill="white"/>
</g>
</mask>
<g mask="url(#mask1_238_1189)">
<g id="g1560">
<g id="g1566">
<path id="path1568" d="M64.0608 37.1777C62.5152 37.1775 61.0561 36.7392 59.7243 35.8749L59.6704 35.8398L59.6166 35.8749C58.2843 36.7394 56.8252 37.1777 55.2799 37.1777C50.9352 37.1777 46.9693 33.7853 45.0633 32.155C44.6928 31.8381 44.4019 31.5893 44.2336 31.4745L43.3696 30.8856L44.4239 30.726C44.8251 30.6657 45.2349 30.635 45.6421 30.635C47.0568 30.635 48.452 31.0088 49.5706 31.6873L49.7042 31.5526C49.4001 31.0907 49.1014 30.5878 48.8166 30.0578C47.9805 28.5022 47.5496 27.241 47.5317 27.1879L47.3158 26.55L47.9905 26.6503C48.0743 26.6628 50.0687 26.9635 52.3904 27.5881L52.5115 27.6208L52.5142 27.497C52.5512 25.746 52.8353 24.378 52.8676 24.2278L52.982 23.7008L53.4681 23.9482C53.5325 23.981 55.0666 24.7652 56.8142 25.9539L57.1768 26.2006L57.2301 26.1107C58.1608 24.5402 59.1582 23.3319 59.3487 23.1056L59.6704 22.7235L59.992 23.1056C60.1824 23.3319 61.1797 24.54 62.1107 26.1106L62.164 26.2006L62.5265 25.9539C64.2744 24.765 65.8082 23.981 65.8727 23.9482L66.3587 23.7008L66.4733 24.228C66.4861 24.2874 66.7886 25.7046 66.8265 27.497L66.8291 27.6208L66.9502 27.5881C69.2722 26.9635 71.2664 26.6628 71.35 26.6503L72.0248 26.55L71.809 27.188C71.7911 27.2407 71.3659 28.4919 70.5241 30.0579C70.2395 30.5875 69.9409 31.0904 69.6366 31.5526L69.7702 31.6873C70.8888 31.0088 72.2841 30.635 73.6987 30.635C74.1055 30.635 74.515 30.6656 74.9155 30.7257L75.9711 30.8856L75.1071 31.4745C74.9383 31.5896 74.6468 31.8392 74.2775 32.155C72.372 33.7853 68.407 37.1777 64.0619 37.1777H64.0608Z" fill="white"/>
</g>
</g>
</g>
</g>
</g>
<g id="g1570">
<g id="g1572">
<g id="g1578">
<g id="g1580">
<path id="path1592" d="M52.8723 34.387C56.1098 36.6717 59.653 35.3328 59.653 35.3328C59.653 35.3328 55.7952 34.6117 55.3989 31.3154C55.3139 30.6084 55.3953 29.8403 55.5752 29.07C52.1816 27.6913 47.9285 27.0587 47.9285 27.0587C47.9285 27.0587 49.6345 32.1021 52.8723 34.387Z" fill="url(#paint23_linear_238_1189)"/>
</g>
</g>
</g>
</g>
<g id="g1594">
<g id="g1596">
<g id="g1602">
<g id="g1604">
<path id="path1616" d="M55.9316 31.0528C55.9316 34.2362 59.4058 35.2551 59.6703 35.3281C59.9351 35.2551 63.409 34.2362 63.409 31.0528C63.409 27.8738 59.9433 23.6937 59.6703 23.3697C59.3976 23.6937 55.9316 27.8738 55.9316 31.0528Z" fill="url(#paint24_linear_238_1189)"/>
</g>
</g>
</g>
</g>
<g id="g1618">
<g id="g1620">
<g id="g1626">
<g id="g1628">
<path id="path1640" d="M52.9294 27.6836C53.8427 27.9374 54.7968 28.2408 55.6987 28.5957C55.9252 27.7957 56.2424 27.0061 56.5769 26.2934C54.8326 25.1068 53.2764 24.3146 53.2764 24.3146C53.2764 24.3146 52.9496 25.8202 52.9294 27.6836Z" fill="url(#paint25_linear_238_1189)"/>
</g>
</g>
</g>
</g>
<g id="g1642">
<g id="g1644">
<g id="g1650">
<g id="g1652">
<path id="path1664" d="M44.4884 31.133C44.4772 31.1348 44.4716 31.1357 44.4716 31.1357C45.8692 32.0884 53.191 39.9195 59.6705 35.339L59.6529 35.3318C59.6529 35.3318 56.2816 36.8947 52.7861 34.8278C51.9299 34.3217 51.1457 33.6444 50.4496 32.9106C49.3342 31.7346 47.5332 31.047 45.6419 31.047C45.2595 31.047 44.8734 31.0751 44.4884 31.133Z" fill="url(#paint26_linear_238_1189)"/>
</g>
</g>
</g>
</g>
<g id="g1666">
<g id="g1668">
<g id="g1674">
<g id="g1676">
<path id="path1688" d="M63.7658 29.07C63.9458 29.8403 64.0272 30.6084 63.9423 31.3154C63.5459 34.6117 59.6881 35.3328 59.6881 35.3328C59.6881 35.3328 63.2313 36.6717 66.469 34.387C69.7065 32.1021 71.4126 27.0587 71.4126 27.0587C71.4126 27.0587 67.1596 27.6913 63.7658 29.07Z" fill="url(#paint27_linear_238_1189)"/>
</g>
</g>
</g>
</g>
<g id="g1690">
<g id="g1692">
<g id="g1698">
<g id="g1700">
<path id="path1712" d="M62.7642 26.2934C63.0987 27.0061 63.4159 27.7957 63.6423 28.5957C64.5444 28.2408 65.4985 27.9374 66.4117 27.6836C66.3915 25.8202 66.0647 24.3146 66.0647 24.3146C66.0647 24.3146 64.5085 25.1068 62.7642 26.2934Z" fill="url(#paint28_linear_238_1189)"/>
</g>
</g>
</g>
</g>
<g id="g1714">
<g id="g1716">
<g id="g1722">
<g id="g1724">
<path id="path1736" d="M68.8915 32.9106C68.1952 33.6444 67.411 34.3217 66.5547 34.8278C63.0593 36.8947 59.688 35.3318 59.688 35.3318L59.6704 35.339C66.1499 39.9195 73.4718 32.0884 74.8695 31.1357C74.8695 31.1357 74.8638 31.1348 74.8527 31.133C74.4678 31.0751 74.0815 31.047 73.6991 31.047C71.8076 31.0469 70.0068 31.7346 68.8915 32.9106Z" fill="url(#paint29_linear_238_1189)"/>
</g>
</g>
</g>
</g>
</g>
</g>
<defs>
<radialGradient id="paint0_radial_238_1189" cx="0" cy="0" r="1" gradientUnits="userSpaceOnUse" gradientTransform="translate(59.7185 18.9193) rotate(4.72698) scale(10.9011 10.7468)">
<stop stop-color="#C0DBF1"/>
<stop offset="0.578787" stop-color="#2093CD"/>
<stop offset="0.664563" stop-color="#2093CD"/>
<stop offset="0.922217" stop-color="#0473B7"/>
<stop offset="0.998308" stop-color="#0473B7"/>
<stop offset="0.999704" stop-color="#0473B7"/>
<stop offset="1" stop-color="#0473B7"/>
</radialGradient>
<radialGradient id="paint1_radial_238_1189" cx="0" cy="0" r="1" gradientUnits="userSpaceOnUse" gradientTransform="translate(59.7185 18.9195) rotate(4.72702) scale(10.901 10.7469)">
<stop stop-color="#C0DBF1"/>
<stop offset="0.578787" stop-color="#2093CD"/>
<stop offset="0.664563" stop-color="#2093CD"/>
<stop offset="0.922217" stop-color="#0473B7"/>
<stop offset="0.998308" stop-color="#0473B7"/>
<stop offset="0.999704" stop-color="#0473B7"/>
<stop offset="1" stop-color="#0473B7"/>
</radialGradient>
<radialGradient id="paint2_radial_238_1189" cx="0" cy="0" r="1" gradientUnits="userSpaceOnUse" gradientTransform="translate(59.7185 18.9184) rotate(4.727) scale(10.9011 10.7469)">
<stop stop-color="#C0DBF1"/>
<stop offset="0.578787" stop-color="#2093CD"/>
<stop offset="0.664563" stop-color="#2093CD"/>
<stop offset="0.922217" stop-color="#0473B7"/>
<stop offset="0.998308" stop-color="#0473B7"/>
<stop offset="0.999704" stop-color="#0473B7"/>
<stop offset="1" stop-color="#0473B7"/>
</radialGradient>
<radialGradient id="paint3_radial_238_1189" cx="0" cy="0" r="1" gradientUnits="userSpaceOnUse" gradientTransform="translate(59.7182 18.9187) rotate(4.72698) scale(10.9011 10.7468)">
<stop stop-color="#C0DBF1"/>
<stop offset="0.578787" stop-color="#2093CD"/>
<stop offset="0.664563" stop-color="#2093CD"/>
<stop offset="0.922217" stop-color="#0473B7"/>
<stop offset="0.998308" stop-color="#0473B7"/>
<stop offset="0.999704" stop-color="#0473B7"/>
<stop offset="1" stop-color="#0473B7"/>
</radialGradient>
<radialGradient id="paint4_radial_238_1189" cx="0" cy="0" r="1" gradientUnits="userSpaceOnUse" gradientTransform="translate(59.7185 18.9194) rotate(4.727) scale(10.901 10.7468)">
<stop stop-color="#C0DBF1"/>
<stop offset="0.578787" stop-color="#2093CD"/>
<stop offset="0.664563" stop-color="#2093CD"/>
<stop offset="0.922217" stop-color="#0473B7"/>
<stop offset="0.998308" stop-color="#0473B7"/>
<stop offset="0.999704" stop-color="#0473B7"/>
<stop offset="1" stop-color="#0473B7"/>
</radialGradient>
<radialGradient id="paint5_radial_238_1189" cx="0" cy="0" r="1" gradientUnits="userSpaceOnUse" gradientTransform="translate(59.7185 18.9199) rotate(4.72702) scale(10.901 10.7468)">
<stop stop-color="#C0DBF1"/>
<stop offset="0.578787" stop-color="#2093CD"/>
<stop offset="0.664563" stop-color="#2093CD"/>
<stop offset="0.922217" stop-color="#0473B7"/>
<stop offset="0.998308" stop-color="#0473B7"/>
<stop offset="0.999704" stop-color="#0473B7"/>
<stop offset="1" stop-color="#0473B7"/>
</radialGradient>
<radialGradient id="paint6_radial_238_1189" cx="0" cy="0" r="1" gradientUnits="userSpaceOnUse" gradientTransform="translate(59.7183 18.9184) rotate(4.72704) scale(10.9011 10.747)">
<stop stop-color="#C0DBF1"/>
<stop offset="0.578787" stop-color="#2093CD"/>
<stop offset="0.664563" stop-color="#2093CD"/>
<stop offset="0.922217" stop-color="#0473B7"/>
<stop offset="0.998308" stop-color="#0473B7"/>
<stop offset="0.999704" stop-color="#0473B7"/>
<stop offset="1" stop-color="#0473B7"/>
</radialGradient>
<radialGradient id="paint7_radial_238_1189" cx="0" cy="0" r="1" gradientUnits="userSpaceOnUse" gradientTransform="translate(59.7185 18.9186) rotate(4.72698) scale(10.9011 10.7468)">
<stop stop-color="#C0DBF1"/>
<stop offset="0.578787" stop-color="#2093CD"/>
<stop offset="0.664563" stop-color="#2093CD"/>
<stop offset="0.922217" stop-color="#0473B7"/>
<stop offset="0.998308" stop-color="#0473B7"/>
<stop offset="0.999704" stop-color="#0473B7"/>
<stop offset="1" stop-color="#0473B7"/>
</radialGradient>
<radialGradient id="paint8_radial_238_1189" cx="0" cy="0" r="1" gradientUnits="userSpaceOnUse" gradientTransform="translate(59.7185 18.9187) rotate(4.727) scale(10.901 10.7468)">
<stop stop-color="#C0DBF1"/>
<stop offset="0.578787" stop-color="#2093CD"/>
<stop offset="0.664563" stop-color="#2093CD"/>
<stop offset="0.922217" stop-color="#0473B7"/>
<stop offset="0.998308" stop-color="#0473B7"/>
<stop offset="0.999704" stop-color="#0473B7"/>
<stop offset="1" stop-color="#0473B7"/>
</radialGradient>
<radialGradient id="paint9_radial_238_1189" cx="0" cy="0" r="1" gradientUnits="userSpaceOnUse" gradientTransform="translate(59.7183 18.919) rotate(4.72697) scale(10.9011 10.7469)">
<stop stop-color="#C0DBF1"/>
<stop offset="0.578787" stop-color="#2093CD"/>
<stop offset="0.664563" stop-color="#2093CD"/>
<stop offset="0.922217" stop-color="#0473B7"/>
<stop offset="0.998308" stop-color="#0473B7"/>
<stop offset="0.999704" stop-color="#0473B7"/>
<stop offset="1" stop-color="#0473B7"/>
</radialGradient>
<radialGradient id="paint10_radial_238_1189" cx="0" cy="0" r="1" gradientUnits="userSpaceOnUse" gradientTransform="translate(59.7185 18.92) rotate(4.727) scale(10.901 10.7468)">
<stop stop-color="#C0DBF1"/>
<stop offset="0.578787" stop-color="#2093CD"/>
<stop offset="0.664563" stop-color="#2093CD"/>
<stop offset="0.922217" stop-color="#0473B7"/>
<stop offset="0.998308" stop-color="#0473B7"/>
<stop offset="0.999704" stop-color="#0473B7"/>
<stop offset="1" stop-color="#0473B7"/>
</radialGradient>
<radialGradient id="paint11_radial_238_1189" cx="0" cy="0" r="1" gradientUnits="userSpaceOnUse" gradientTransform="translate(59.7185 18.9192) rotate(4.72701) scale(10.901 10.7468)">
<stop stop-color="#C0DBF1"/>
<stop offset="0.578787" stop-color="#2093CD"/>
<stop offset="0.664563" stop-color="#2093CD"/>
<stop offset="0.922217" stop-color="#0473B7"/>
<stop offset="0.998308" stop-color="#0473B7"/>
<stop offset="0.999704" stop-color="#0473B7"/>
<stop offset="1" stop-color="#0473B7"/>
</radialGradient>
<radialGradient id="paint12_radial_238_1189" cx="0" cy="0" r="1" gradientUnits="userSpaceOnUse" gradientTransform="translate(59.7185 18.9199) rotate(4.727) scale(10.9011 10.7468)">
<stop stop-color="#C0DBF1"/>
<stop offset="0.578787" stop-color="#2093CD"/>
<stop offset="0.664563" stop-color="#2093CD"/>
<stop offset="0.922217" stop-color="#0473B7"/>
<stop offset="0.998308" stop-color="#0473B7"/>
<stop offset="0.999704" stop-color="#0473B7"/>
<stop offset="1" stop-color="#0473B7"/>
</radialGradient>
<radialGradient id="paint13_radial_238_1189" cx="0" cy="0" r="1" gradientUnits="userSpaceOnUse" gradientTransform="translate(59.3903 18.4877) rotate(-2.58484) scale(9.56128 9.42469)">
<stop stop-color="#C0DBF1"/>
<stop offset="0.578787" stop-color="#2093CD"/>
<stop offset="0.664563" stop-color="#2093CD"/>
<stop offset="0.922217" stop-color="#0473B7"/>
<stop offset="0.998308" stop-color="#0473B7"/>
<stop offset="0.999704" stop-color="#0473B7"/>
<stop offset="1" stop-color="#0473B7"/>
</radialGradient>
<radialGradient id="paint14_radial_238_1189" cx="0" cy="0" r="1" gradientUnits="userSpaceOnUse" gradientTransform="translate(59.7856 18.9195) rotate(4.81363) scale(10.7056 10.7458)">
<stop stop-color="#C0DBF1"/>
<stop offset="0.578787" stop-color="#22AADD"/>
<stop offset="0.664563" stop-color="#22AADD"/>
<stop offset="0.922217" stop-color="#0473B7"/>
<stop offset="0.998308" stop-color="#0473B7"/>
<stop offset="0.999704" stop-color="#0473B7"/>
<stop offset="1" stop-color="#0473B7"/>
</radialGradient>
<radialGradient id="paint15_radial_238_1189" cx="0" cy="0" r="1" gradientUnits="userSpaceOnUse" gradientTransform="translate(59.7174 18.9188) rotate(4.72553) scale(10.9044 10.7468)">
<stop stop-color="#C0DBF1"/>
<stop offset="0.578787" stop-color="#22AADD"/>
<stop offset="0.664563" stop-color="#22AADD"/>
<stop offset="0.922217" stop-color="#0473B7"/>
<stop offset="0.998308" stop-color="#0473B7"/>
<stop offset="0.999704" stop-color="#0473B7"/>
<stop offset="1" stop-color="#0473B7"/>
</radialGradient>
<radialGradient id="paint16_radial_238_1189" cx="0" cy="0" r="1" gradientUnits="userSpaceOnUse" gradientTransform="translate(59.7303 18.919) rotate(4.74293) scale(10.8645 10.7466)">
<stop stop-color="#C0DBF1"/>
<stop offset="0.578787" stop-color="#22AADD"/>
<stop offset="0.664563" stop-color="#22AADD"/>
<stop offset="0.922217" stop-color="#0473B7"/>
<stop offset="0.998308" stop-color="#0473B7"/>
<stop offset="0.999704" stop-color="#0473B7"/>
<stop offset="1" stop-color="#0473B7"/>
</radialGradient>
<radialGradient id="paint17_radial_238_1189" cx="0" cy="0" r="1" gradientUnits="userSpaceOnUse" gradientTransform="translate(59.7833 18.9205) rotate(4.81279) scale(10.7069 10.7452)">
<stop stop-color="#C0DBF1"/>
<stop offset="0.578787" stop-color="#22AADD"/>
<stop offset="0.664563" stop-color="#22AADD"/>
<stop offset="0.922217" stop-color="#0473B7"/>
<stop offset="0.998308" stop-color="#0473B7"/>
<stop offset="0.999704" stop-color="#0473B7"/>
<stop offset="1" stop-color="#0473B7"/>
</radialGradient>
<radialGradient id="paint18_radial_238_1189" cx="0" cy="0" r="1" gradientUnits="userSpaceOnUse" gradientTransform="translate(59.7172 18.9198) rotate(4.7256) scale(10.9042 10.7468)">
<stop stop-color="#C0DBF1"/>
<stop offset="0.578787" stop-color="#22AADD"/>
<stop offset="0.664563" stop-color="#22AADD"/>
<stop offset="0.922217" stop-color="#0473B7"/>
<stop offset="0.998308" stop-color="#0473B7"/>
<stop offset="0.999704" stop-color="#0473B7"/>
<stop offset="1" stop-color="#0473B7"/>
</radialGradient>
<radialGradient id="paint19_radial_238_1189" cx="0" cy="0" r="1" gradientUnits="userSpaceOnUse" gradientTransform="translate(59.7173 18.9195) rotate(4.72578) scale(10.9038 10.7468)">
<stop stop-color="#C0DBF1"/>
<stop offset="0.578787" stop-color="#22AADD"/>
<stop offset="0.664563" stop-color="#22AADD"/>
<stop offset="0.922217" stop-color="#0473B7"/>
<stop offset="0.998308" stop-color="#0473B7"/>
<stop offset="0.999704" stop-color="#0473B7"/>
<stop offset="1" stop-color="#0473B7"/>
</radialGradient>
<radialGradient id="paint20_radial_238_1189" cx="0" cy="0" r="1" gradientUnits="userSpaceOnUse" gradientTransform="translate(59.7135 18.9201) rotate(4.74299) scale(10.8643 10.7465)">
<stop stop-color="#C0DBF1"/>
<stop offset="0.578787" stop-color="#22AADD"/>
<stop offset="0.664563" stop-color="#22AADD"/>
<stop offset="0.922217" stop-color="#0473B7"/>
<stop offset="0.998308" stop-color="#0473B7"/>
<stop offset="0.999704" stop-color="#0473B7"/>
<stop offset="1" stop-color="#0473B7"/>
</radialGradient>
<linearGradient id="paint21_linear_238_1189" x1="18.2761" y1="21.4609" x2="18.4999" y2="37.1296" gradientUnits="userSpaceOnUse">
<stop stop-color="#F68E2B"/>
<stop offset="0.232071" stop-color="#F68E2B"/>
<stop offset="0.86554" stop-color="#0F8141"/>
<stop offset="1" stop-color="#0F8141"/>
</linearGradient>
<linearGradient id="paint22_linear_238_1189" x1="36.2898" y1="21.2055" x2="36.5136" y2="36.8742" gradientUnits="userSpaceOnUse">
<stop stop-color="#F68E2B"/>
<stop offset="0.232071" stop-color="#F68E2B"/>
<stop offset="0.86554" stop-color="#0F8141"/>
<stop offset="1" stop-color="#0F8141"/>
</linearGradient>
<linearGradient id="paint23_linear_238_1189" x1="53.7908" y1="21.3495" x2="53.7908" y2="40.3312" gradientUnits="userSpaceOnUse">
<stop stop-color="#F68E2B"/>
<stop offset="0.232071" stop-color="#F68E2B"/>
<stop offset="0.86554" stop-color="#0F8141"/>
<stop offset="1" stop-color="#0F8141"/>
</linearGradient>
<linearGradient id="paint24_linear_238_1189" x1="59.6704" y1="21.3496" x2="59.6704" y2="40.3314" gradientUnits="userSpaceOnUse">
<stop stop-color="#F68E2B"/>
<stop offset="0.232071" stop-color="#F68E2B"/>
<stop offset="0.86554" stop-color="#0F8141"/>
<stop offset="1" stop-color="#0F8141"/>
</linearGradient>
<linearGradient id="paint25_linear_238_1189" x1="54.7532" y1="21.3489" x2="54.7532" y2="40.3307" gradientUnits="userSpaceOnUse">
<stop stop-color="#F68E2B"/>
<stop offset="0.232071" stop-color="#F68E2B"/>
<stop offset="0.86554" stop-color="#0F8141"/>
<stop offset="1" stop-color="#0F8141"/>
</linearGradient>
<linearGradient id="paint26_linear_238_1189" x1="52.071" y1="21.3485" x2="52.071" y2="40.3303" gradientUnits="userSpaceOnUse">
<stop stop-color="#F68E2B"/>
<stop offset="0.232071" stop-color="#F68E2B"/>
<stop offset="0.86554" stop-color="#0F8141"/>
<stop offset="1" stop-color="#0F8141"/>
</linearGradient>
<linearGradient id="paint27_linear_238_1189" x1="65.5504" y1="21.3495" x2="65.5504" y2="40.3312" gradientUnits="userSpaceOnUse">
<stop stop-color="#F68E2B"/>
<stop offset="0.232071" stop-color="#F68E2B"/>
<stop offset="0.86554" stop-color="#0F8141"/>
<stop offset="1" stop-color="#0F8141"/>
</linearGradient>
<linearGradient id="paint28_linear_238_1189" x1="64.5879" y1="21.3489" x2="64.5879" y2="40.3307" gradientUnits="userSpaceOnUse">
<stop stop-color="#F68E2B"/>
<stop offset="0.232071" stop-color="#F68E2B"/>
<stop offset="0.86554" stop-color="#0F8141"/>
<stop offset="1" stop-color="#0F8141"/>
</linearGradient>
<linearGradient id="paint29_linear_238_1189" x1="67.27" y1="21.3485" x2="67.27" y2="40.3303" gradientUnits="userSpaceOnUse">
<stop stop-color="#F68E2B"/>
<stop offset="0.232071" stop-color="#F68E2B"/>
<stop offset="0.86554" stop-color="#0F8141"/>
<stop offset="1" stop-color="#0F8141"/>
</linearGradient>
</defs>
</svg>
